<svg width="168" height="169" viewBox="0 0 168 169" fill="none" xmlns="http://www.w3.org/2000/svg">
<path d="M28.9901 151.276C-1.38768 133.663 -1.38768 105.106 28.9901 87.5073C59.3678 69.9086 108.622 69.8951 139.01 87.5073C169.398 105.12 169.388 133.677 139.01 151.276C108.632 168.874 59.3712 168.891 28.9901 151.276Z" fill="#F5F5F5"/>
<path d="M53.303 152.126C66.4858 152.126 77.1725 145.931 77.1725 138.289C77.1725 130.647 66.4858 124.453 53.303 124.453C40.1203 124.453 29.4336 130.647 29.4336 138.289C29.4336 145.931 40.1203 152.126 53.303 152.126Z" fill="#E0E0E0"/>
<path d="M108.472 131.822C125.024 122.858 134.84 108.886 130.398 100.615C125.955 92.3446 108.937 92.9066 92.385 101.871C75.8335 110.835 66.0171 124.807 70.4594 133.077C74.9018 141.348 91.9207 140.786 108.472 131.822Z" fill="#E0E0E0"/>
<path d="M124.942 112.174C128.251 108.213 133.436 105.632 139.265 104.107C145.024 102.606 146.056 99.0463 142.239 97.8958C137.915 96.5867 132.518 98.989 129.037 102.333C122.976 108.159 122.213 112.61 122.213 112.61L124.942 112.174Z" fill="#FFC656"/>
<path opacity="0.15" d="M124.942 112.174C128.251 108.213 133.436 105.632 139.265 104.107C145.024 102.606 146.056 99.0463 142.239 97.8958C137.915 96.5867 132.518 98.989 129.037 102.333C122.976 108.159 122.213 112.61 122.213 112.61L124.942 112.174Z" fill="black"/>
<path d="M123.238 111.935C123.214 111.94 123.189 111.94 123.164 111.935C123.144 111.925 123.126 111.912 123.112 111.895C123.097 111.878 123.086 111.859 123.079 111.838C123.072 111.817 123.069 111.795 123.07 111.773C123.071 111.75 123.077 111.729 123.087 111.709C127.999 101.587 138.879 99.0969 141.513 99.2858C141.557 99.2893 141.598 99.31 141.627 99.3434C141.656 99.3769 141.67 99.4205 141.668 99.4647C141.663 99.5091 141.642 99.5502 141.608 99.5791C141.574 99.6081 141.531 99.6227 141.486 99.6199C138.906 99.4242 128.224 101.891 123.389 111.857C123.373 111.882 123.35 111.902 123.324 111.916C123.297 111.929 123.268 111.936 123.238 111.935Z" fill="white"/>
<path d="M122.213 113.227C122.213 113.39 122.257 113.55 122.338 113.69C122.42 113.831 122.537 113.947 122.678 114.027C122.819 114.108 122.979 114.149 123.141 114.147C123.303 114.145 123.462 114.1 123.601 114.017C126.679 112.218 131.168 111.223 138.432 113.301C142.296 114.405 144.198 113.666 145.011 112.087C145.918 110.332 144.003 108.635 141.819 107.835C134.383 105.106 127.673 106.968 122.213 112.414V113.227Z" fill="#FFC656"/>
<path d="M122.64 113.372C122.616 113.373 122.592 113.368 122.57 113.359C122.549 113.349 122.529 113.336 122.512 113.318C122.481 113.286 122.464 113.243 122.464 113.198C122.464 113.154 122.481 113.111 122.512 113.079C128.933 107.316 138.879 108.439 142.642 110.687C142.68 110.709 142.708 110.746 142.719 110.789C142.731 110.832 142.725 110.877 142.703 110.916C142.679 110.955 142.642 110.982 142.599 110.994C142.556 111.005 142.51 110.999 142.471 110.977C138.775 108.774 129.031 107.677 122.737 113.339C122.709 113.359 122.675 113.371 122.64 113.372Z" fill="white"/>
<path d="M50.3731 126.662C47.5507 122.337 42.7056 119.159 37.0944 116.955C31.5571 114.783 30.9489 111.129 34.8734 110.434C39.3221 109.647 44.399 112.674 47.4633 116.405C52.799 122.91 53.0309 127.428 53.0309 127.428L50.3731 126.662Z" fill="#FFC656"/>
<path opacity="0.15" d="M50.3731 126.662C47.5507 122.337 42.7056 119.159 37.0944 116.955C31.5571 114.783 30.9489 111.129 34.8734 110.434C39.3221 109.647 44.399 112.674 47.4633 116.405C52.799 122.91 53.0309 127.428 53.0309 127.428L50.3731 126.662Z" fill="black"/>
<path d="M52.08 126.635C52.1044 126.64 52.1295 126.64 52.1539 126.635C52.1958 126.62 52.2302 126.589 52.2496 126.549C52.2691 126.508 52.2721 126.462 52.2581 126.419C48.5621 115.788 38.0654 112.026 35.4178 111.911C35.3737 111.909 35.3308 111.925 35.2981 111.955C35.2654 111.984 35.2456 112.026 35.243 112.07C35.242 112.115 35.2582 112.158 35.2882 112.192C35.3182 112.225 35.3598 112.245 35.4043 112.249C37.9915 112.357 48.3067 116.071 51.9389 126.541C51.9519 126.568 51.9719 126.591 51.9967 126.607C52.0215 126.624 52.0502 126.634 52.08 126.635Z" fill="white"/>
<path d="M53.0544 127.222C53.0281 127.462 52.9406 127.691 52.8005 127.887C52.6604 128.083 52.4724 128.239 52.2546 128.341C52.0367 128.443 51.7965 128.487 51.557 128.468C51.3175 128.449 51.0868 128.369 50.8872 128.235C48.0379 126.318 43.7942 125.073 36.8424 126.21C32.8776 126.848 31.0766 125.873 30.4584 124.223C29.7662 122.374 31.8696 120.92 34.1309 120.383C41.8354 118.555 48.2798 121.2 53.0611 127.249L53.0544 127.222Z" fill="#FFC656"/>
<path d="M52.5235 128.13C52.547 128.133 52.5709 128.131 52.5935 128.124C52.6162 128.117 52.637 128.106 52.6546 128.09C52.6856 128.057 52.7029 128.014 52.7029 127.97C52.7029 127.925 52.6856 127.882 52.6546 127.85C46.9426 121.369 36.9466 121.304 32.9448 123.089C32.9038 123.108 32.8717 123.142 32.8557 123.184C32.8396 123.226 32.8408 123.273 32.8591 123.314C32.8774 123.355 32.9112 123.387 32.9531 123.403C32.995 123.419 33.0416 123.418 33.0826 123.4C37.0037 121.649 46.8149 121.713 52.4026 128.073C52.4172 128.091 52.4356 128.105 52.4565 128.115C52.4775 128.125 52.5004 128.13 52.5235 128.13Z" fill="white"/>
<path d="M127.956 49.5736L127.902 49.5466L115.093 42.1441L115.016 42.107C109.032 39.0704 101.049 39.9848 92.4605 45.5586C75.2102 56.7602 62.0659 82.5442 63.1008 103.149C63.6149 113.416 67.5595 120.458 73.5168 123.555L73.5672 123.582L86.3789 130.988L86.4394 131.022C92.4235 134.058 100.414 133.157 109.008 127.577C126.259 116.375 139.403 90.5912 138.368 69.9862C137.861 59.7125 133.916 52.671 127.956 49.5736Z" fill="#37474F"/>
<path d="M85.9387 130.748L73.584 123.575L73.5235 123.538C67.5662 120.434 63.625 113.393 63.1075 103.139C62.6472 93.9483 65.0093 83.7352 69.2899 74.2509L69.3739 74.0417L82.1016 81.6535C77.8142 91.1377 75.4589 101.351 75.9192 110.542C76.4064 120.593 80.1931 127.55 85.9387 130.748Z" fill="#263238"/>
<path d="M109.015 127.57C126.265 116.368 139.41 90.5844 138.375 69.9795C137.34 49.3746 122.516 41.7561 105.265 52.9577C88.0152 64.1594 74.8675 89.9434 75.9024 110.545C76.9373 131.146 91.765 138.772 109.015 127.57Z" fill="#455A64"/>
<path d="M123.624 47.9743L102.003 92.7032L97.3493 87.6423C95.9617 86.1915 94.0629 85.3452 92.0607 85.2849C90.0584 85.2246 88.1125 85.9553 86.6409 87.3199C85.1693 88.6846 84.2894 90.5744 84.1901 92.5833C84.0909 94.5923 84.7802 96.5603 86.1101 98.0645L98.3707 111.402C99.7189 112.873 101.587 113.754 103.575 113.858C103.716 113.858 103.858 113.858 103.999 113.858C104.37 113.858 104.74 113.831 105.108 113.777C106.342 113.597 107.513 113.116 108.519 112.376C109.526 111.636 110.336 110.66 110.88 109.533L135.677 58.2481C133.133 52.5528 128.9 49.0236 123.624 47.9743Z" fill="#37474F"/>
<path d="M141.184 33.2435C141.049 33.1659 140.908 33.0917 140.767 33.0242C139.182 32.2531 137.358 32.1447 135.694 32.7228C134.029 33.301 132.661 34.5184 131.89 36.108L104.378 93.0137L102.813 91.3267C102.361 90.8308 101.835 90.4085 101.254 90.0749C100.434 89.6026 96.9461 87.5748 96.3816 87.2475C95.0057 86.4482 93.39 86.1708 91.8278 86.4657C90.2657 86.7606 88.8606 87.6082 87.8677 88.8547C86.8748 90.1012 86.36 91.6639 86.4166 93.259C86.4733 94.8541 87.0977 96.376 88.1765 97.5483L100.437 110.882C100.897 111.383 101.431 111.81 102.02 112.148C102.819 112.603 106.294 114.627 106.865 114.958C107.655 115.417 108.531 115.708 109.438 115.813C110.345 115.917 111.264 115.832 112.137 115.564C113.01 115.296 113.818 114.85 114.512 114.254C115.206 113.658 115.77 112.925 116.169 112.1L148.717 44.7792C149.449 43.2619 149.582 41.5229 149.09 39.9109C148.599 38.299 147.518 36.9333 146.066 36.0878L141.184 33.2435Z" fill="#FFC656"/>
<path opacity="0.15" d="M141.184 33.2435C141.049 33.1659 140.908 33.0917 140.767 33.0242C139.182 32.2531 137.358 32.1447 135.694 32.7228C134.029 33.301 132.661 34.5184 131.89 36.108L104.378 93.0137L102.813 91.3267C102.361 90.8308 101.835 90.4085 101.254 90.0749C100.434 89.6026 96.9461 87.5748 96.3816 87.2475C95.0057 86.4482 93.39 86.1708 91.8278 86.4657C90.2657 86.7606 88.8606 87.6082 87.8677 88.8547C86.8748 90.1012 86.36 91.6639 86.4166 93.259C86.4733 94.8541 87.0977 96.376 88.1765 97.5483L100.437 110.882C100.897 111.383 101.431 111.81 102.02 112.148C102.819 112.603 106.294 114.627 106.865 114.958C107.655 115.417 108.531 115.708 109.438 115.813C110.345 115.917 111.264 115.832 112.137 115.564C113.01 115.296 113.818 114.85 114.512 114.254C115.206 113.658 115.77 112.925 116.169 112.1L148.717 44.7792C149.449 43.2619 149.582 41.5229 149.09 39.9109C148.599 38.299 147.518 36.9333 146.066 36.0878L141.184 33.2435Z" fill="black"/>
<path opacity="0.15" d="M106.848 114.945C106.284 114.607 102.816 112.583 102.006 112.134C101.417 111.796 100.884 111.37 100.424 110.869L88.163 97.5348C87.6224 96.9425 87.1932 96.2566 86.8963 95.5104L91.7717 98.3345C92.0673 99.0828 92.4991 99.7693 93.0451 100.359L105.302 113.693C105.753 114.184 106.274 114.606 106.848 114.945Z" fill="black"/>
<path opacity="0.15" d="M138.308 36.884C137.667 37.4612 137.145 38.1579 136.769 38.9354L108.471 97.4673L104.378 93.0137L131.89 36.108C132.265 35.3292 132.789 34.6321 133.432 34.0566L138.308 36.884Z" fill="black"/>
<path d="M145.646 35.8516C144.061 35.0823 142.237 34.9749 140.573 35.5529C138.91 36.1308 137.542 37.3471 136.769 38.9354L108.471 97.4673L102.816 91.3132C101.606 90.0787 99.9647 89.3657 98.2402 89.3251C96.5156 89.2845 94.843 89.9195 93.5766 91.0956C92.3101 92.2718 91.5493 93.8967 91.4551 95.6263C91.3609 97.3559 91.9408 99.0544 93.072 100.362L105.329 113.7C106.063 114.497 106.979 115.102 107.999 115.463C109.019 115.824 110.11 115.929 111.18 115.77C112.249 115.611 113.264 115.193 114.135 114.551C115.007 113.909 115.71 113.063 116.182 112.087L148.73 44.7657C149.497 43.1727 149.603 41.3391 149.025 39.6677C148.447 37.9964 147.231 36.6238 145.646 35.8516Z" fill="#FFC656"/>
<path d="M52.8293 42.4309C50.2656 42.4309 48.5117 43.1056 46.6906 45.7036C45.0106 48.0924 40.4275 56.055 40.4275 56.055C40.4275 56.055 37.0675 49.1316 36.7315 47.7516C36.3955 46.3717 36.4157 45.7576 36.7315 45.157C37.194 44.4472 37.484 43.6382 37.5782 42.7952C37.7093 41.1352 38.1125 39.7148 37.7429 39.6676C36.7181 39.6102 36.6778 40.9328 36.1402 41.7122C36.0719 41.7874 35.9869 41.8455 35.8921 41.8816C35.7973 41.9177 35.6954 41.9308 35.5946 41.92C35.4938 41.9091 35.397 41.8746 35.312 41.8191C35.2269 41.7637 35.1561 41.6889 35.1053 41.6009C34.8802 41.1386 35.0011 40.3795 34.8936 39.8329C34.9227 39.5287 34.971 39.2267 35.0381 38.9287C35.4262 38.9988 35.8226 39.0101 36.2141 38.9624C36.6576 39.6608 36.96 39.9543 37.5782 39.6709C37.6589 39.5427 37.3128 38.6587 36.9062 37.9839C36.8452 37.8807 36.7463 37.8056 36.6307 37.7748C35.8853 37.5852 35.1074 37.5633 34.3526 37.7106C34.2956 37.7165 34.2403 37.7339 34.1901 37.7617C34.1398 37.7896 34.0957 37.8273 34.0603 37.8726C33.7767 38.2899 33.5506 38.7439 33.3883 39.2222C33.3446 39.3673 33.2102 39.3639 33.1766 39.2391C32.8406 37.6094 32.8406 35.2949 32.8406 34.2118C32.8406 33.3582 31.6008 33.2232 31.5571 34.4446C31.4835 36.0834 31.5115 37.7252 31.6411 39.3605C31.6411 39.509 31.4933 39.5798 31.4328 39.4179C31.2178 38.8409 30.6902 37.0966 30.4685 34.087C30.408 33.2772 29.1043 33.1456 29.1245 34.2827C29.1756 36.2986 29.4368 38.3035 29.904 40.2648C29.9443 40.4065 29.8133 40.5313 29.7158 40.3693C29.1042 39.1858 28.6155 37.9421 28.2576 36.658C27.9787 35.6795 26.6784 35.9292 26.9136 37.1472C27.3202 39.3302 27.9653 42.0901 28.9296 44.0639C29.9578 46.1726 30.8448 47.2287 31.3555 48.8853C31.8662 50.5419 33.9797 59.925 36.241 63.5824C38.0117 66.4503 40.0378 66.1837 42.2184 64.6722C44.399 63.1606 52.1909 52.2593 52.1909 52.2593L52.8293 42.4309Z" fill="#9E6767"/>
<path d="M40.4275 56.0516C40.4275 56.0516 41.5195 57.9107 41.6875 59.3986C41.9651 57.9539 41.6891 56.4572 40.9147 55.2081L40.4275 56.0516Z" fill="#874C4C"/>
<path d="M53.3736 42.4309C52.0699 42.2959 50.447 42.252 48.6394 43.3958C46.8317 44.5396 46.2 46.1321 45.323 47.5256C44.4461 48.919 41.4154 53.8552 41.4154 53.8552C41.4154 53.8552 42.5275 58.5416 46.9493 59.5066L53.5718 50.4846L53.3736 42.4309Z" fill="#455A64"/>
<path d="M59.3107 124.834C59.6467 124.79 60.0936 125.94 60.1003 126.315C60.1071 126.689 59.7307 127.496 59.2368 128.252C58.5766 129.151 58.0293 130.129 57.6072 131.163C57.2275 132.203 56.8781 132.884 55.8197 134.244C54.6437 135.759 51.8818 138.293 47.6885 137.193C46.6637 136.923 46.153 136.599 45.78 136.224C45.6164 136.058 45.5023 135.85 45.4506 135.622C45.3989 135.394 45.4118 135.156 45.4877 134.935L59.3107 124.834Z" fill="#263238"/>
<path d="M51.072 123.518V123.555C51.0239 123.87 51.033 124.191 51.0989 124.503C51.2141 125.432 51.1321 126.375 50.8582 127.27C50.5842 128.165 50.1246 128.992 49.5096 129.696C48.9255 130.308 48.2661 130.843 47.5474 131.288C45.4238 132.638 45.1954 133.559 45.4944 134.935C46.2067 136.538 51.0216 137.513 53.7902 135.128C54.9849 134.196 55.8981 132.95 56.4278 131.528C56.8297 130.509 57.2966 129.517 57.8256 128.559C58.3598 127.546 59.3746 126.406 59.4048 125.363C59.4216 124.79 58.8571 123.724 58.3094 122.846C57.8054 122.04 57.2846 121.274 56.831 121.362L56.9587 121.817C56.579 122.212 56.0314 122.361 55.7021 122.83C55.2922 123.4 55.3056 124.179 55.0536 124.82C55.0454 124.853 55.03 124.884 55.0085 124.91C54.987 124.936 54.9599 124.958 54.9293 124.972C54.8938 124.978 54.8573 124.972 54.8253 124.956C54.7932 124.94 54.7673 124.913 54.7512 124.881C54.7238 124.815 54.7112 124.743 54.7142 124.672L54.684 123.69C54.6991 123.501 54.6493 123.313 54.5429 123.157C54.2808 122.86 53.6357 122.894 53.2762 122.88C52.7922 122.884 52.3089 122.913 51.828 122.968C51.6613 122.951 51.4943 122.996 51.3576 123.093C51.2203 123.201 51.1203 123.349 51.072 123.518Z" fill="#37474F"/>
<path d="M43.9555 103.901C45.0744 107.596 50.3059 120.387 50.6184 121.156L51.66 123.693C52.3459 123.92 53.0809 123.951 53.7835 123.784C53.8944 125.009 54.0792 126.929 54.1498 127.897C54.1766 129.021 54.2741 130.411 54.0322 131.521C53.8272 132.466 53.5886 133.458 53.4106 134.406C53.3333 134.824 53.256 135.246 53.1922 135.668C53.0838 136.109 53.1203 136.574 53.2963 136.994C53.4035 137.177 53.545 137.337 53.713 137.466C54.4593 138.055 55.4025 138.332 56.3472 138.242C56.8467 138.218 57.3301 138.057 57.745 137.776C58.5581 137.193 58.8437 136.177 59.257 135.313C59.7072 134.379 59.5627 134.274 59.593 133.272C59.6198 132.57 59.8147 130.789 60.0936 128.926C60.3725 127.064 61.5754 120.518 62.1533 113.996C62.3888 111.1 62.3888 108.188 62.1533 105.292C66.743 92.7707 68.7859 85.3243 69.3874 81.1676C69.9955 76.9434 69.7032 75.4318 69.6259 73.0059L47.3054 73.5458C45.5179 85.132 42.4536 98.9485 43.9555 103.901Z" fill="#9E6767"/>
<path d="M43.6061 94.6568C44.0664 90.3988 47.2382 74.0316 47.2382 74.0316H69.7234C69.7234 74.0316 69.8678 77.1728 69.8275 78.6169C69.7872 80.0609 69.3235 82.696 68.5205 86.0396C67.7174 89.3832 64.7405 98.8203 64.1525 100.21C63.5645 101.6 62.4725 105.632 62.4725 105.632C63.0235 113.204 61.5888 119.999 60.5136 129.031C60.5136 129.031 60.2011 130.249 57.0158 130.009C53.9179 129.773 53.293 128.626 53.293 128.626L53.088 120.836C53.088 120.836 51.408 121.355 50.4 121.119C50.4 121.119 43.7438 104.617 43.4213 103.625C43.0987 102.633 43.1458 98.9148 43.6061 94.6568Z" fill="#FFC656"/>
<path opacity="0.45" d="M43.6061 94.6568C44.0664 90.3988 47.2382 74.0316 47.2382 74.0316H69.7234C69.7234 74.0316 69.8678 77.1728 69.8275 78.6169C69.7872 80.0609 69.3235 82.696 68.5205 86.0396C67.7174 89.3832 64.7405 98.8203 64.1525 100.21C63.5645 101.6 62.4725 105.632 62.4725 105.632C63.0235 113.204 61.5888 119.999 60.5136 129.031C60.5136 129.031 60.2011 130.249 57.0158 130.009C53.9179 129.773 53.293 128.626 53.293 128.626L53.088 120.836C53.088 120.836 51.408 121.355 50.4 121.119C50.4 121.119 43.7438 104.617 43.4213 103.625C43.0987 102.633 43.1458 98.9148 43.6061 94.6568Z" fill="black"/>
<path opacity="0.2" d="M53.1451 84.7002C49.9598 81.8188 49.2509 79.5245 49.2509 79.5245C50.8523 81.3362 52.7486 82.8615 54.8587 84.0355C54.8587 84.0355 51.8347 100.069 52.0565 103.365C52.2782 106.661 53.088 120.836 53.088 120.836C53.088 120.971 50.9443 105.845 50.8805 104.64C50.736 101.452 53.1451 84.7002 53.1451 84.7002Z" fill="black"/>
<path d="M60.144 137.058C60.4565 137.149 60.4162 138.087 60.2751 138.438C59.9254 139.05 59.4302 139.566 58.8336 139.939C57.9594 140.537 57.2302 141.324 56.7 142.244C55.8373 143.569 54.6962 144.688 53.3568 145.523C51.5728 146.539 49.4702 146.835 47.4768 146.35C45.3667 145.749 45.1719 145.229 45.1887 144.43L60.144 137.058Z" fill="#263238"/>
<path d="M53.6256 132.152C53.0712 134.851 52.1069 136.835 49.8725 138.502C48.0917 139.831 46.8014 140.506 45.3802 141.69C44.7787 142.196 44.7283 143.273 45.1886 144.433C46.1496 145.206 47.5138 145.651 49.345 145.648C51.3946 145.648 52.1808 145.28 53.3568 144.474C53.9345 144.077 54.4724 143.625 54.9629 143.124C55.9474 142.132 56.6429 140.907 57.3418 140.121C58.0407 139.335 59.5896 138.532 60.0298 137.584C60.2717 137.064 60.1709 135.86 60.0096 134.834C59.8618 133.893 60.1474 132.24 59.6971 132.135L59.6333 132.81C59.5963 132.962 59.5023 133.039 59.1864 133.147C58.9025 133.209 58.6097 133.217 58.3229 133.171C58.221 133.134 58.11 133.13 58.0057 133.159C57.9014 133.189 57.809 133.251 57.7416 133.336C57.4392 133.694 57.3586 134.2 56.9688 134.497C56.9436 134.519 56.9137 134.535 56.8815 134.544C56.8665 134.552 56.8494 134.557 56.8323 134.556C56.8151 134.555 56.7984 134.55 56.784 134.541C56.7736 134.524 56.7667 134.506 56.7638 134.487C56.7609 134.468 56.7621 134.448 56.7672 134.429L56.8781 133.417C56.8915 133.316 56.8915 133.214 56.8781 133.113C56.857 133.019 56.8161 132.931 56.7582 132.854C56.7002 132.777 56.6265 132.714 56.5421 132.668C56.2591 132.503 55.955 132.377 55.6383 132.294C55.3086 132.204 54.971 132.146 54.6302 132.121C54.2959 132.078 53.9568 132.089 53.6256 132.152Z" fill="#455A64"/>
<path d="M67.6939 43.3992C67.6939 43.3992 68.6179 44.6746 69.3739 47.3029C70.2942 51.6195 70.7671 56.0201 70.7851 60.4345C70.7851 66.3963 69.9854 76.056 69.9854 76.056C63.0941 79.5245 51.9792 77.4731 47.0871 74.089C47.2853 73.0161 47.4533 67.3747 47.8397 63.6532C48.0984 57.2697 48.3135 53.9261 48.3571 51.0852C48.4479 45.4101 51.2602 42.4781 53.3971 42.4343L58.7933 42.5186L67.6939 43.3992Z" fill="#FFC656"/>
<path d="M69.3941 74.3049C68.3693 75.1518 66.3701 76.7781 65.9904 77.5979C65.567 78.5359 65.3184 79.9597 65.0328 80.4928C64.7472 81.0259 65.1773 81.2958 65.7686 81.1035C66.36 80.9112 66.7128 80.4085 67.1698 79.1803C67.6267 77.9522 68.8968 76.9906 68.8968 76.9906L69.3941 74.3049Z" fill="#874C4C"/>
<path d="M65.651 85.348C65.8963 85.8237 66.4675 85.8271 66.995 85.8676C67.6382 85.9417 68.2896 85.8678 68.9002 85.6517C69.6338 85.4389 70.2773 84.9895 70.7314 84.3729C71.2488 83.6239 71.3832 82.6859 71.6789 81.8256C72.2971 80.0205 74.1384 78.7181 74.4408 76.8051C74.5651 76.0156 74.5651 75.0843 74.7768 74.5951C74.9078 74.3049 77.9352 69.0719 79.0171 66.8046C80.052 64.625 80.8282 63.5993 79.8874 60.9811C78.9466 58.3629 75.7445 49.1485 73.4765 45.9466C72.193 44.1314 70.1534 43.6118 67.6805 43.3992C65.7989 48.3185 67.9862 53.4031 67.9862 53.4031L72.9792 63.046C72.9792 63.046 71.0438 69.686 69.8342 73.3771C69.4982 74.3893 68.8262 75.0371 68.0568 76.1741C67.7208 76.6667 66.9614 77.5237 66.6926 78.0602C66.3566 78.735 66.3566 79.1804 66.1886 80.1352C65.9266 81.6569 65.52 85.1219 65.651 85.348Z" fill="#9E6767"/>
<path d="M67.4285 43.3723C68.7288 43.4229 70.597 43.6455 71.7125 44.2124C72.828 44.7792 73.6042 45.4776 74.8877 48.0621C76.1712 50.6466 78.0494 55.6671 78.0494 55.6671C78.0494 55.6671 77.4278 59.456 71.4605 60.4379L67.4285 52.9712C67.4285 52.9712 65.6309 48.3185 67.4285 43.3723Z" fill="#455A64"/>
<path d="M51.9254 31.3136C52.1017 31.6337 52.2545 31.9664 52.3824 32.3089C52.5812 32.7563 52.8352 33.1769 53.1384 33.5607C53.9112 34.4548 54.9965 35.1093 55.9877 35.7436C56.5858 36.1283 57.2712 36.4893 58.0037 36.3847C58.7362 36.2801 59.5526 36.4387 60.3086 36.5062L62.953 36.7457L62.8051 39.536C62.8051 39.536 63.1411 38.7971 63.5813 37.9131C63.9643 37.154 65.5704 33.3042 65.5771 33.2874C66.3734 31.3811 67.3176 28.8371 66.3667 26.8329C66.1505 26.3394 65.7895 25.9239 65.3318 25.6419C65.4239 25.3338 65.4536 25.0103 65.4192 24.6905C65.3663 24.2364 65.2127 23.8 64.9696 23.4135C64.7266 23.0269 64.4002 22.7 64.0147 22.4569C63.2622 21.9462 62.4139 21.5949 61.5216 21.4244C60.3382 21.1511 59.1272 21.0163 57.913 21.0229C56.7232 21.0594 55.5386 21.196 54.3715 21.4312C53.7205 21.5519 53.061 21.6208 52.3992 21.637C52.1141 21.6558 51.8278 21.6422 51.5458 21.5965C51.1952 21.4913 50.8508 21.3663 50.5142 21.222C50.485 21.2097 50.4536 21.2033 50.4218 21.2033C50.3901 21.2033 50.3587 21.2097 50.3294 21.222C50.3027 21.2398 50.2802 21.2632 50.2634 21.2906C50.2466 21.3179 50.2359 21.3486 50.232 21.3806C50.1446 21.8018 50.1483 22.2369 50.2428 22.6566C50.3372 23.0763 50.5203 23.4707 50.7797 23.8132C50.6285 23.7925 50.4813 23.7493 50.3429 23.685C50.1857 23.6119 50.0341 23.5274 49.8893 23.432C49.6427 23.2659 49.4267 23.0582 49.2509 22.8179C49.2266 22.7802 49.1896 22.7527 49.1467 22.7403C49.0795 22.7403 49.0258 22.7875 48.9854 22.8415C48.8041 23.1123 48.6806 23.4179 48.6228 23.7391C48.565 24.0602 48.574 24.3899 48.6494 24.7073C48.7976 25.3445 49.0974 25.9361 49.523 26.4314C49.3154 26.7683 49.1955 27.1523 49.1743 27.5479C49.1532 27.9435 49.2315 28.3381 49.4021 28.6954C49.5515 29.0122 49.7525 29.3019 49.9968 29.5524C50.2992 29.8628 50.6688 30.1158 50.9746 30.406C51.3252 30.6708 51.6442 30.9754 51.9254 31.3136Z" fill="#37474F"/>
<path d="M59.9794 26.6642C59.9696 27.1681 60.0341 27.6707 60.1709 28.1555C60.3303 28.5815 60.5869 28.964 60.9202 29.2723C61.2971 29.5935 61.6456 29.9468 61.9618 30.3284C62.303 30.9224 62.5031 31.5874 62.5464 32.2718C62.5483 32.4734 62.5952 32.672 62.6836 32.853C62.772 33.034 62.8996 33.1928 63.0571 33.3177C63.7762 33.7665 64.2062 32.8994 64.5893 32.4742C65.0832 32.0154 66.5515 31.4621 67.2302 33.0208C67.9325 34.6403 66.6355 36.7862 65.4562 37.1168C63.4234 37.6871 62.9798 36.297 62.9798 36.297L62.5901 43.5848C61.4443 45.7677 58.7496 46.4628 56.9789 46.1153C55.4501 45.815 54.6101 44.7387 56.0482 43.1799L56.1254 40.9598C56.1254 40.9598 54.2909 41.1791 53.4072 41.0104C51.9322 40.7338 51.203 39.4753 50.8032 37.8524C50.1682 35.2443 49.8758 32.5012 50.6654 26.6271C51.025 26.4281 52.4798 27.5651 54.6974 27.7169C56.5201 27.8459 58.3439 27.4825 59.9794 26.6642Z" fill="#9E6767"/>
<path d="M56.112 40.953C56.112 40.953 59.4384 40.393 60.6144 39.8126C61.3045 39.4789 61.8783 38.9439 62.2608 38.2775C62.0644 38.9504 61.7353 39.5769 61.2931 40.1197C60.4128 41.1757 56.0818 41.837 56.0818 41.837L56.112 40.953Z" fill="#874C4C"/>
<path d="M57.8424 29.2723L59.3914 29.748C59.4506 29.5356 59.4256 29.3083 59.3216 29.1139C59.2176 28.9196 59.0427 28.7732 58.8336 28.7055C58.7315 28.6754 58.6243 28.6663 58.5186 28.6787C58.4129 28.6911 58.3107 28.7248 58.2182 28.7777C58.1257 28.8306 58.0448 28.9016 57.9802 28.9866C57.9157 29.0716 57.8688 29.1687 57.8424 29.2723Z" fill="#263238"/>
<path d="M57.3048 36.6411L55.0234 37.4171C55.0678 37.5702 55.1424 37.7129 55.2427 37.8365C55.3431 37.9601 55.4671 38.0622 55.6075 38.1368C55.7479 38.2114 55.9018 38.2569 56.06 38.2706C56.2182 38.2844 56.3776 38.266 56.5287 38.2168C56.8356 38.1056 57.0879 37.8795 57.2326 37.5858C57.3772 37.2921 57.4031 36.9536 57.3048 36.6411Z" fill="#874C4C"/>
<path d="M57.12 37.2012C56.8222 37.2014 56.5329 37.3009 56.2976 37.4841C56.0622 37.6673 55.8941 37.9238 55.8197 38.2134C56.05 38.2893 56.2984 38.2893 56.5286 38.2134C56.7412 38.1379 56.9292 38.0056 57.0725 37.8309C57.2157 37.6561 57.3088 37.4454 57.3418 37.2214C57.2686 37.208 57.1944 37.2012 57.12 37.2012Z" fill="#F28F8F"/>
<path d="M50.9275 29.5186L52.5034 29.3128C52.4914 29.2104 52.4591 29.1114 52.4084 29.0217C52.3578 28.9319 52.2897 28.8533 52.2083 28.7904C52.1269 28.7275 52.0337 28.6816 51.9344 28.6555C51.835 28.6293 51.7314 28.6234 51.6298 28.638C51.422 28.6651 51.2328 28.7719 51.1018 28.9362C50.9709 29.1004 50.9084 29.3092 50.9275 29.5186Z" fill="#263238"/>
<path d="M60.6144 30.1934L65.8123 31.9715C65.5211 31.9749 65.2345 32.0454 64.9746 32.1776C64.7148 32.3098 64.4887 32.5002 64.3138 32.734L60.6346 31.3305L60.6144 30.1934Z" fill="#263238"/>
<path d="M51.7037 32.2313C51.6978 32.3153 51.7086 32.3996 51.7357 32.4793C51.7627 32.559 51.8053 32.6324 51.8611 32.6953C51.9168 32.7582 51.9845 32.8092 52.0602 32.8454C52.1359 32.8816 52.218 32.9023 52.3018 32.9061C52.3852 32.907 52.4679 32.8914 52.5453 32.8602C52.6227 32.8289 52.6932 32.7827 52.7528 32.7241C52.8124 32.6655 52.8599 32.5957 52.8926 32.5187C52.9254 32.4417 52.9427 32.3589 52.9435 32.2752C52.9494 32.1912 52.9386 32.1069 52.9115 32.0272C52.8845 31.9475 52.8419 31.8741 52.7861 31.8112C52.7304 31.7483 52.6627 31.6973 52.587 31.6611C52.5113 31.6249 52.4292 31.6042 52.3454 31.6004C52.262 31.5995 52.1793 31.6151 52.1019 31.6463C52.0245 31.6776 51.954 31.7238 51.8944 31.7824C51.8348 31.841 51.7873 31.9108 51.7546 31.9878C51.7218 32.0648 51.7046 32.1476 51.7037 32.2313Z" fill="#263238"/>
<path d="M57.6408 32.2313C57.6415 32.3537 57.6781 32.4732 57.7459 32.575C57.8138 32.6767 57.9099 32.7561 58.0224 32.8034C58.1349 32.8507 58.2587 32.8637 58.3785 32.8408C58.4983 32.8179 58.6087 32.7602 58.6961 32.6748C58.7834 32.5894 58.8438 32.48 58.8698 32.3604C58.8957 32.2408 58.886 32.1161 58.842 32.002C58.7979 31.8878 58.7214 31.7892 58.6219 31.7184C58.5224 31.6476 58.4044 31.6077 58.2826 31.6037C58.1147 31.6019 57.953 31.6669 57.8327 31.7845C57.7125 31.9021 57.6435 32.0628 57.6408 32.2313Z" fill="#263238"/>
<path d="M48.972 31.3068C48.7909 31.0999 48.674 30.8442 48.636 30.5713C48.6278 30.4441 48.6611 30.3177 48.7308 30.2112C48.8005 30.1047 48.9029 30.0238 49.0224 29.9809L49.3584 29.9471C50.4538 29.8459 51.8885 29.8358 52.7554 30.1192C53.8474 30.4768 54.1934 30.875 54.8352 30.875C55.477 30.875 55.8768 30.5139 57.0259 30.2002C57.9432 29.9505 59.4754 30.0112 60.6514 30.1563L61.0176 30.2035C61.1454 30.2476 61.2554 30.3324 61.3306 30.4451C61.4059 30.5579 61.4423 30.6923 61.4342 30.8277C61.3946 31.0921 61.2777 31.3387 61.0982 31.5363C61.0428 31.6239 61.004 31.7212 60.984 31.823C60.8698 32.319 60.8093 33.2705 60.5774 33.7935C60.469 34.0526 60.3154 34.2903 60.1238 34.4952C60.053 34.5709 59.9754 34.6398 59.892 34.7011C59.8493 34.7345 59.8044 34.7649 59.7576 34.7922C59.6303 34.8702 59.4951 34.9347 59.3544 34.9845L59.2838 35.0047C59.2486 35.0168 59.2127 35.027 59.1763 35.0351L59.0654 35.0621C58.9471 35.0884 58.8269 35.1053 58.7059 35.1127C58.6545 35.1161 58.6028 35.1161 58.5514 35.1127H58.3598C56.8579 35.0924 56.2464 34.3535 55.8499 33.5978C55.4534 32.842 55.5139 31.7724 54.8419 31.7724H54.7747H54.7142C54.2102 31.8872 54.2909 32.8589 53.9818 33.5539C53.8664 33.8293 53.7063 34.0836 53.508 34.3063C53.4725 34.3481 53.4344 34.3876 53.3938 34.4244C53.376 34.4449 53.3557 34.4631 53.3333 34.4784L53.2694 34.529L53.2123 34.5762L53.1485 34.6201L53.0981 34.6504L53.0645 34.6741C52.8794 34.7795 52.6803 34.8579 52.4731 34.9069H52.4194C52.1808 34.9564 51.9371 34.9768 51.6936 34.9676C51.2365 34.9867 50.785 34.8608 50.4032 34.6076C50.0214 34.3544 49.7287 33.9869 49.5667 33.5573C49.3282 33.0242 49.224 32.0727 49.103 31.57C49.0792 31.4737 49.0344 31.3838 48.972 31.3068Z" fill="#263238"/>
<path d="M55.0234 31.7893L54.9058 36.1283L52.4966 35.4265L54.7445 31.7522C54.839 31.7432 54.9344 31.7559 55.0234 31.7893Z" fill="#874C4C"/>
<path d="M88.7107 32.3392C95.586 32.3392 101.16 27.4374 101.16 21.3907C101.16 15.3439 95.586 10.4421 88.7107 10.4421C81.8354 10.4421 76.2619 15.3439 76.2619 21.3907C76.2619 27.4374 81.8354 32.3392 88.7107 32.3392Z" fill="#FFC656"/>
<path d="M78.7752 27.7236C78.7047 29.1913 77.4682 31.8163 75.2338 32.7846C75.2039 32.7974 75.1788 32.8192 75.162 32.8471C75.1452 32.8749 75.1376 32.9074 75.1402 32.9399C75.1428 32.9724 75.1555 33.0032 75.1765 33.028C75.1975 33.0528 75.2258 33.0704 75.2573 33.0781C76.5346 33.3624 77.8667 33.2661 79.0903 32.801C80.3139 32.3359 81.3756 31.5223 82.1453 30.4599L78.7752 27.7236Z" fill="#FFC656"/>
<path d="M80.2704 20.5236C80.2985 20.0437 80.4123 19.5729 80.6064 19.1335C80.7894 18.7036 81.0621 18.3181 81.4061 18.0032C81.7696 17.6692 82.194 17.4091 82.656 17.2373C83.764 16.8594 84.9652 16.8594 86.0731 17.2373C86.5395 17.4083 86.9685 17.6684 87.3365 18.0032C87.6791 18.3246 87.9494 18.7157 88.1295 19.1503C88.3236 19.5897 88.4374 20.0606 88.4655 20.5404C88.4823 20.9183 88.489 21.3131 88.489 21.7247C88.489 22.1363 88.489 22.5243 88.4655 22.882C88.4374 23.3618 88.3236 23.8327 88.1295 24.2721C87.9445 24.7028 87.6722 25.09 87.3298 25.4091C86.9642 25.7471 86.5345 26.0076 86.0664 26.175C84.957 26.5438 83.7587 26.5438 82.6493 26.175C82.1831 26.0078 81.7555 25.7473 81.3927 25.4091C81.0492 25.091 80.7766 24.7035 80.593 24.2721C80.3989 23.8327 80.2851 23.3618 80.257 22.882C80.2402 22.5243 80.2301 22.1363 80.2301 21.7247C80.2301 21.3131 80.2536 20.9014 80.2704 20.5236ZM86.016 22.801C86.016 22.6424 86.0328 22.4636 86.0429 22.2747C86.053 22.0857 86.0429 21.8833 86.0429 21.6808C86.0429 21.4784 86.0429 21.2827 86.0429 21.0938C86.0429 20.9048 86.0227 20.7564 86.016 20.5877C86.0016 20.3804 85.9551 20.1766 85.8783 19.9837C85.8059 19.8034 85.6985 19.6394 85.5624 19.5012C85.4188 19.3599 85.2471 19.2506 85.0584 19.1807C84.5999 19.0234 84.1024 19.0234 83.6439 19.1807C83.4546 19.2514 83.2819 19.3605 83.1365 19.5012C83.0014 19.6396 82.8951 19.8036 82.824 19.9837C82.7472 20.1766 82.7007 20.3804 82.6863 20.5877C82.6656 20.7556 82.6544 20.9246 82.6527 21.0938C82.6527 21.2827 82.6527 21.4784 82.6527 21.6808C82.6527 21.8833 82.6527 22.079 82.6527 22.2747C82.6544 22.4506 82.6656 22.6263 82.6863 22.801C82.7066 23.2066 82.8656 23.5927 83.1365 23.8942C83.2975 24.0471 83.4886 24.1645 83.6975 24.2389C83.9064 24.3133 84.1285 24.343 84.3495 24.326C84.5695 24.3437 84.7908 24.3143 84.9987 24.2399C85.2066 24.1655 85.3964 24.0476 85.5557 23.8942C85.8242 23.5902 85.9859 23.2062 86.016 22.801Z" fill="#FAFAFA"/>
<path d="M97.776 25.8679C97.8039 25.9109 97.8169 25.9619 97.813 26.013C97.8135 26.0507 97.8063 26.0881 97.7918 26.1229C97.7774 26.1578 97.756 26.1892 97.729 26.2154C97.703 26.243 97.6718 26.265 97.6371 26.2801C97.6025 26.2952 97.5652 26.303 97.5274 26.3032H95.424C95.3174 26.3071 95.2121 26.2789 95.1216 26.2222C95.0342 26.1582 94.9552 26.0834 94.8864 25.9995L92.4 22.8617V25.9422C92.3986 26.0331 92.3633 26.1203 92.3011 26.1865C92.239 26.2526 92.1544 26.2931 92.064 26.2998H90.3437C90.2971 26.3001 90.2509 26.2907 90.2081 26.2721C90.1652 26.2535 90.1268 26.2262 90.0951 26.1918C90.0615 26.1597 90.0349 26.1209 90.0169 26.0779C89.999 26.035 89.9901 25.9887 89.9909 25.9422V17.4431C89.9901 17.3965 89.999 17.3503 90.0169 17.3073C90.0349 17.2643 90.0615 17.2256 90.0951 17.1934C90.1268 17.1591 90.1652 17.1317 90.2081 17.1132C90.2509 17.0946 90.2971 17.0851 90.3437 17.0854H92.064C92.1544 17.0922 92.239 17.1326 92.3011 17.1988C92.3633 17.265 92.3986 17.3521 92.4 17.4431V20.2199L94.7083 17.3756C94.7612 17.3121 94.8173 17.2512 94.8763 17.1934C94.9763 17.1119 95.1043 17.0731 95.2325 17.0854H97.2754C97.3137 17.0851 97.3517 17.0928 97.387 17.1079C97.4222 17.123 97.454 17.1452 97.4803 17.1732C97.5073 17.1994 97.5287 17.2309 97.5432 17.2657C97.5576 17.3005 97.5648 17.3379 97.5643 17.3756C97.5678 17.4272 97.5536 17.4784 97.524 17.5207L94.2984 21.5121L97.776 25.8679Z" fill="#FAFAFA"/>
<path d="M120.832 31.742L118.947 32.3123L117.587 27.7472L119.465 27.1804L120.832 31.742Z" fill="#E0E0E0"/>
<path d="M126.716 27.6899C126.731 27.8751 126.688 28.0605 126.592 28.2194C126.496 28.3782 126.352 28.5024 126.181 28.5739C126.304 28.7134 126.394 28.8781 126.447 29.0564C126.554 29.3938 126.269 29.883 125.701 30.0686L121.39 31.3709L120.123 27.1298C120.123 27.1298 120.852 25.2573 120.889 24.9739C120.926 24.6904 120.496 23.6513 120.436 23.4556C120.375 23.2599 121.074 23.0035 121.625 23.2261C121.753 23.2834 121.868 23.3673 121.961 23.4724C122.159 23.6844 122.326 23.9242 122.455 24.1843C122.638 24.5551 122.728 24.9651 122.717 25.3787L125.328 24.5791C125.508 24.5136 125.706 24.5136 125.886 24.5791C126.004 24.6259 126.108 24.7025 126.187 24.8015C126.267 24.9006 126.32 25.0186 126.341 25.1442C126.362 25.2698 126.35 25.3987 126.307 25.5185C126.264 25.6382 126.19 25.7446 126.094 25.8275C126.249 25.8162 126.404 25.8576 126.533 25.9451C126.662 26.0325 126.759 26.161 126.806 26.31C126.846 26.4831 126.825 26.6647 126.747 26.824C126.668 26.9833 126.537 27.1105 126.376 27.1838C126.551 27.3019 126.672 27.4834 126.716 27.6899Z" fill="#E0E0E0"/>
<path d="M147.84 79.0757L145.424 78.492L146.832 72.6415L149.248 73.2252L147.84 79.0757Z" fill="#E0E0E0"/>
<path d="M156.835 78.4178C156.734 78.6297 156.57 78.8043 156.365 78.9164C156.159 79.0286 155.924 79.0725 155.692 79.042C155.736 79.2722 155.73 79.5091 155.676 79.737C155.568 80.1925 154.953 80.5265 154.227 80.3477L148.697 78.9981L150 73.5626C150 73.5626 151.986 71.987 152.205 71.7002C152.423 71.4134 152.611 70.0132 152.672 69.7534C152.732 69.4936 153.656 69.669 154.116 70.2662C154.228 70.4113 154.306 70.5796 154.345 70.7588C154.427 71.1159 154.456 71.483 154.432 71.8486C154.396 72.3709 154.235 72.8767 153.962 73.3231L157.302 74.1328C157.539 74.1833 157.75 74.3159 157.9 74.5073C157.983 74.6166 158.041 74.7423 158.072 74.8761C158.103 75.0099 158.105 75.1487 158.078 75.2833C158.033 75.4607 157.94 75.622 157.809 75.749C157.677 75.876 157.514 75.9636 157.335 76.002C157.512 76.0889 157.655 76.233 157.74 76.4111C157.825 76.5892 157.848 76.7909 157.806 76.9838C157.738 77.1971 157.599 77.3804 157.412 77.5033C157.226 77.6261 157.003 77.6809 156.781 77.6586C156.897 77.895 156.916 78.1673 156.835 78.4178Z" fill="#E0E0E0"/>
<path d="M25.8115 75.5768L28.4491 76.3731L30.3576 69.9828L27.7234 69.1865L25.8115 75.5768Z" fill="#E0E0E0"/>
<path d="M17.5694 69.8985C17.5474 70.158 17.6082 70.4178 17.7429 70.6404C17.8775 70.8629 18.0792 71.0368 18.3187 71.1367C18.1494 71.3329 18.0234 71.5629 17.9491 71.8115C17.7979 72.3075 18.2011 72.9722 18.9907 73.2083L25.0387 75.0337L26.8061 69.0853C26.8061 69.0853 25.7813 66.4604 25.7309 66.0487C25.6805 65.6371 26.2853 64.1998 26.3659 63.9231C26.4331 63.7004 25.4722 63.2922 24.6859 63.606C24.499 63.6795 24.3312 63.7949 24.1954 63.9434C23.9162 64.2446 23.6829 64.5857 23.5032 64.9556C23.2457 65.4795 23.1189 66.0585 23.1336 66.6426L19.5048 65.5426C19.2489 65.4581 18.9714 65.4677 18.7219 65.5696C18.5566 65.635 18.4109 65.7423 18.2991 65.881C18.1873 66.0197 18.1133 66.1852 18.0842 66.3613C18.0551 66.5373 18.0719 66.7179 18.133 66.8855C18.1942 67.0531 18.2975 67.2019 18.433 67.3174C18.2137 67.2985 17.9945 67.355 17.8113 67.4776C17.6282 67.6002 17.4919 67.7816 17.425 67.9922C17.3691 68.2351 17.3984 68.49 17.508 68.7137C17.6176 68.9374 17.8007 69.1164 18.0264 69.2203C17.7962 69.3822 17.6335 69.6237 17.5694 69.8985Z" fill="#E0E0E0"/>
</svg>
