<svg width="211" height="213" viewBox="0 0 211 213" fill="none" xmlns="http://www.w3.org/2000/svg">
<path d="M38.1952 170.93C76.0824 190.804 137.513 190.804 175.404 170.93C213.296 151.056 213.291 118.808 175.404 98.9507C137.517 79.0935 76.0824 79.0766 38.1952 98.9507C0.308054 118.825 0.303833 151.043 38.1952 170.93Z" fill="#F5F5F5"/>
<path d="M70.4107 157.238L105.238 177.43C105.608 177.618 106.016 177.716 106.431 177.716C106.845 177.716 107.253 177.618 107.623 177.43L174.299 138.869C174.957 138.487 174.957 137.869 174.299 137.487L139.399 117.253C139.03 117.065 138.621 116.967 138.207 116.967C137.793 116.967 137.384 117.065 137.015 117.253L70.4234 155.861C69.7482 156.238 69.7482 156.857 70.4107 157.238Z" fill="#E0E0E0"/>
<path d="M27.43 117.249L45.6562 127.766C46.0257 127.954 46.4341 128.052 46.8484 128.052C47.2626 128.052 47.671 127.954 48.0405 127.766L69.9086 115.087C70.5669 114.706 70.5669 114.087 69.9086 113.706L51.7879 103.197C51.4176 103.009 51.0085 102.911 50.5936 102.911C50.1787 102.911 49.7696 103.009 49.3993 103.197L27.43 115.867C26.7464 116.265 26.7464 116.867 27.43 117.249Z" fill="#E0E0E0"/>
<path d="M172.822 124.596C172.72 124.554 172.4 117.698 175.354 113.659C178.308 109.621 181.852 109.155 184.19 110.138C186.528 111.121 186.047 113.528 183.169 114.977C180.291 116.426 176.708 118.952 175.856 123.562L172.822 124.596Z" fill="#FFC656"/>
<path opacity="0.1" d="M172.822 124.596C172.72 124.554 172.4 117.698 175.354 113.659C178.308 109.621 181.852 109.155 184.19 110.138C186.528 111.121 186.047 113.528 183.169 114.977C180.291 116.426 176.708 118.952 175.856 123.562L172.822 124.596Z" fill="black"/>
<path d="M173.902 122.584C173.953 122.583 174.003 122.565 174.043 122.532C174.082 122.498 174.108 122.452 174.117 122.401C175.219 115.439 179.316 112.028 182.785 111.159C182.816 111.156 182.846 111.145 182.873 111.129C182.9 111.113 182.923 111.092 182.941 111.066C182.959 111.04 182.971 111.011 182.976 110.98C182.982 110.949 182.981 110.917 182.974 110.887C182.966 110.856 182.952 110.828 182.933 110.803C182.913 110.779 182.889 110.758 182.861 110.744C182.833 110.73 182.802 110.722 182.771 110.72C182.74 110.719 182.709 110.724 182.68 110.735C179.076 111.638 174.822 115.164 173.683 122.334C173.674 122.392 173.689 122.451 173.723 122.499C173.758 122.547 173.81 122.578 173.868 122.588L173.902 122.584Z" fill="white"/>
<path d="M173.349 137.322C173.796 135.517 175.607 134.322 177.746 134.127C179.966 133.928 182.553 133.703 183.232 131.821C183.912 129.94 183.232 127.385 183.54 126.135C183.924 124.618 184.503 123.715 187.419 122.795C190.035 121.948 191.483 119.461 188.845 118.401C186.208 117.342 183.57 118.011 181.777 118.825C179.983 119.638 179.899 120.482 177.375 120.266C174.852 120.05 172.965 121.643 172.809 123.177L173.349 137.322Z" fill="#FFC656"/>
<path d="M173.349 131.194C173.394 131.194 173.438 131.18 173.475 131.154C173.512 131.129 173.54 131.092 173.556 131.05C175.632 125.241 184.106 119.986 186.942 119.651C187 119.644 187.052 119.614 187.089 119.568C187.125 119.522 187.142 119.464 187.136 119.405C187.133 119.377 187.124 119.349 187.11 119.323C187.096 119.298 187.077 119.276 187.054 119.258C187.031 119.24 187.005 119.227 186.977 119.22C186.949 119.212 186.92 119.211 186.891 119.215C183.992 119.558 175.273 124.944 173.142 130.902C173.125 130.957 173.129 131.017 173.154 131.069C173.179 131.121 173.223 131.161 173.277 131.182C173.3 131.19 173.325 131.195 173.349 131.194Z" fill="white"/>
<path d="M175.337 127.707H175.387C175.444 127.694 175.493 127.659 175.524 127.609C175.554 127.56 175.565 127.501 175.552 127.444C174.851 124.418 175.552 122.469 175.552 122.448C175.562 122.421 175.567 122.392 175.565 122.364C175.564 122.335 175.557 122.307 175.545 122.28C175.533 122.254 175.516 122.231 175.494 122.212C175.473 122.193 175.448 122.178 175.421 122.168C175.394 122.158 175.365 122.154 175.336 122.155C175.307 122.156 175.279 122.163 175.253 122.175C175.226 122.187 175.203 122.204 175.183 122.226C175.163 122.247 175.148 122.272 175.138 122.3C175.109 122.38 174.404 124.38 175.138 127.542C175.15 127.586 175.176 127.626 175.212 127.656C175.247 127.685 175.291 127.703 175.337 127.707Z" fill="white"/>
<path d="M173.902 129.936C173.937 129.936 173.972 129.927 174.003 129.91C175.691 128.978 179.405 129.643 179.443 129.648C179.473 129.66 179.506 129.666 179.538 129.664C179.571 129.663 179.603 129.654 179.631 129.638C179.66 129.623 179.685 129.601 179.704 129.574C179.724 129.548 179.737 129.518 179.743 129.485C179.749 129.453 179.748 129.42 179.739 129.388C179.731 129.357 179.716 129.327 179.695 129.302C179.674 129.277 179.647 129.257 179.618 129.243C179.588 129.23 179.556 129.223 179.523 129.224C179.363 129.194 175.636 128.529 173.797 129.529C173.771 129.543 173.748 129.562 173.73 129.584C173.711 129.607 173.698 129.633 173.69 129.661C173.681 129.689 173.679 129.718 173.682 129.747C173.685 129.776 173.694 129.804 173.708 129.83C173.728 129.863 173.757 129.891 173.791 129.909C173.825 129.928 173.863 129.937 173.902 129.936Z" fill="white"/>
<path d="M67.596 114.138L64.1483 112.138L67.596 111.138V114.138Z" fill="black"/>
<path d="M46.9053 123.135V126.321L27.9364 115.325V112.138L46.9053 123.135Z" fill="black"/>
<path d="M26.2147 87.1449L45.1793 98.1414V124.13L26.2147 113.138V87.1449Z" fill="#263238"/>
<path d="M45.1793 98.1414L71.0437 83.1489V109.138L45.1793 124.13V98.1414Z" fill="#37474F"/>
<path d="M71.0437 83.1488L52.079 72.1523L26.2147 87.1448L45.1793 98.1413L71.0437 83.1488Z" fill="#455A64"/>
<path d="M46.9053 99.1414L69.3178 86.149V92.1452L46.9053 105.142V99.1414Z" fill="#455A64"/>
<g style="mix-blend-mode:multiply">
<g style="mix-blend-mode:multiply">
<path d="M55.5268 94.6539C55.5268 94.9293 56.3497 94.6751 57.3625 94.086L60.5824 92.2173C61.5994 91.6325 62.4223 90.946 62.4223 90.6536V90.1536L55.5268 94.1538V94.6539Z" fill="#263238"/>
</g>
</g>
<path d="M46.9053 107.138L69.3178 94.1453V100.141L46.9053 113.138V107.138Z" fill="#455A64"/>
<g style="mix-blend-mode:multiply">
<g style="mix-blend-mode:multiply">
<path d="M55.5268 102.642C55.5268 102.917 56.3497 102.663 57.3625 102.074L60.5824 100.209C61.5994 99.6203 62.4223 98.9168 62.4223 98.6414V98.1414L55.5268 102.142V102.642Z" fill="#263238"/>
</g>
</g>
<path d="M46.9053 115.134L69.3178 102.142V108.138L46.9053 121.134V115.134Z" fill="#455A64"/>
<g style="mix-blend-mode:multiply">
<g style="mix-blend-mode:multiply">
<path d="M55.5268 110.638C55.5268 110.913 56.3497 110.638 57.3625 110.07L60.5824 108.206C61.5994 107.617 62.4223 106.934 62.4223 106.638V106.138L55.5268 110.138V110.638Z" fill="#263238"/>
</g>
</g>
<path d="M46.9053 126.321L48.6271 125.321V122.134L46.9053 123.135V126.321Z" fill="#263238"/>
<path d="M67.596 114.138L69.3178 113.138V110.138L67.596 111.138V114.138Z" fill="#263238"/>
<path d="M44.3691 95.9802L54.6785 89.9925C54.8811 89.8781 54.8811 89.6874 54.6785 89.5688L40.5373 81.4835C40.4234 81.4261 40.2977 81.3962 40.1702 81.3962C40.0427 81.3962 39.917 81.4261 39.803 81.4835L29.5864 87.4161C29.3796 87.5305 29.3796 87.7212 29.5864 87.8398L43.6306 95.9844C43.7453 96.0422 43.872 96.0719 44.0003 96.0712C44.1287 96.0705 44.255 96.0393 44.3691 95.9802Z" fill="#E0E0E0"/>
<path d="M29.5738 87.3949L41.1788 79.9876C41.2906 79.9283 41.4152 79.8972 41.5417 79.8972C41.6682 79.8972 41.7928 79.9283 41.9046 79.9876L46.0824 82.4115C46.1806 82.4701 46.2533 82.5636 46.2861 82.6735C46.319 82.7833 46.3095 82.9016 46.2596 83.0048L46.0866 83.3395C46.0364 83.4422 46.0263 83.5601 46.0583 83.6699C46.0903 83.7797 46.1622 83.8735 46.2596 83.9328L54.6785 88.8526C54.7164 88.8734 54.748 88.9041 54.77 88.9413C54.792 88.9786 54.8036 89.0212 54.8036 89.0645C54.8036 89.1078 54.792 89.1504 54.77 89.1876C54.748 89.2249 54.7164 89.2556 54.6785 89.2764L44.3438 95.959C44.2323 96.0195 44.1075 96.0511 43.9808 96.0511C43.8541 96.0511 43.7294 96.0195 43.6179 95.959L29.5864 87.8356C29.542 87.8193 29.5035 87.79 29.4758 87.7515C29.4482 87.713 29.4327 87.667 29.4313 87.6196C29.4299 87.5721 29.4428 87.5253 29.4682 87.4853C29.4936 87.4452 29.5304 87.4137 29.5738 87.3949Z" fill="#F5F5F5"/>
<path d="M53.7586 57.3633C53.7249 57.3384 53.6853 57.323 53.6438 57.3185C53.6023 57.3141 53.5604 57.3207 53.5223 57.3378L53.2606 57.4904L53.421 74.233C53.4278 74.3508 53.4618 74.4654 53.5204 74.5676C53.579 74.6699 53.6606 74.757 53.7586 74.822L66.8111 82.3903V64.94L53.7586 57.3633Z" fill="#FFC656"/>
<path opacity="0.2" d="M53.7586 57.3633C53.7249 57.3384 53.6853 57.323 53.6438 57.3185C53.6023 57.3141 53.5604 57.3207 53.5223 57.3378L53.2606 57.4904L53.421 74.233C53.4278 74.3508 53.4618 74.4654 53.5204 74.5676C53.579 74.6699 53.6606 74.757 53.7586 74.822L66.8111 82.3903V64.94L53.7586 57.3633Z" fill="black"/>
<path d="M53.5054 57.5193C53.3197 57.4134 53.1678 57.5193 53.1678 57.7185V74.3933C53.1746 74.5111 53.2086 74.6257 53.2672 74.7279C53.3258 74.8302 53.4074 74.9173 53.5054 74.9824L66.5578 82.5464V65.0834L53.5054 57.5193Z" fill="#FFC656"/>
<path opacity="0.5" d="M53.5054 57.5193C53.3197 57.4134 53.1678 57.5193 53.1678 57.7185V74.3933C53.1746 74.5111 53.2086 74.6257 53.2672 74.7279C53.3258 74.8302 53.4074 74.9173 53.5054 74.9824L66.5578 82.5464V65.0834L53.5054 57.5193Z" fill="black"/>
<path d="M63.3506 80.9241L53.6911 75.3221C53.5931 75.257 53.5115 75.1699 53.4529 75.0677C53.3943 74.9654 53.3602 74.8508 53.3535 74.7331V59.3507L52.0875 58.6261L53.3788 57.8803H53.4041C53.459 57.7955 53.5645 57.7743 53.6911 57.8464L64.7517 64.2663V81.7293L63.3422 82.5429L63.3506 80.9241Z" fill="#EBEBEB"/>
<path d="M52.2816 58.6769C52.0959 58.571 51.944 58.6769 51.944 58.8718V75.5509C51.9504 75.6682 51.9843 75.7823 52.043 75.8839C52.1017 75.9855 52.1834 76.0718 52.2816 76.1357L63.3506 82.5556V65.0926L52.2816 58.6769Z" fill="#FAFAFA"/>
<path d="M63.3464 65.0926L64.7517 64.279L64.7601 81.742L63.3507 82.5556L63.3464 65.0926Z" fill="#E6E6E6"/>
<path d="M62.878 65.5672C62.8757 65.5238 62.8672 65.481 62.8527 65.4401C62.8321 65.3744 62.7959 65.3148 62.7472 65.2663C62.7333 65.249 62.7161 65.2346 62.6966 65.2239C62.5995 65.1646 62.5151 65.2239 62.5193 65.3595C62.5188 65.4214 62.5333 65.4825 62.5615 65.5375C62.5888 65.6051 62.6359 65.6627 62.6966 65.7028C62.6966 65.7028 62.6966 65.7028 62.7219 65.7028C62.8189 65.7536 62.878 65.6943 62.878 65.5672Z" fill="#263238"/>
<path d="M64.8403 66.4147C65.0167 66.3215 65.1576 66.1726 65.2412 65.9909C65.2752 65.9039 65.289 65.8102 65.2817 65.717C65.2744 65.6238 65.2461 65.5334 65.199 65.4528C65.1123 65.3118 64.99 65.1963 64.8446 65.118L64.7559 65.0671V65.2917C64.8553 65.3272 64.9412 65.3927 65.002 65.4792C65.0628 65.5657 65.0954 65.669 65.0954 65.7748C65.0954 65.8807 65.0628 65.984 65.002 66.0704C64.9412 66.1569 64.8553 66.2224 64.7559 66.2579C64.4944 66.3912 64.2052 66.4606 63.9119 66.4606C63.6186 66.4606 63.3295 66.3912 63.0679 66.2579C62.9638 66.2154 62.8751 66.1418 62.814 66.0471C62.7528 65.9523 62.7222 65.841 62.7261 65.7282C62.7341 65.6233 62.7808 65.5251 62.8569 65.4528C62.8363 65.3871 62.8001 65.3275 62.7514 65.279C62.6701 65.3543 62.6066 65.447 62.5657 65.5502C62.5315 65.6367 62.5179 65.73 62.526 65.8227C62.5341 65.9154 62.5636 66.0049 62.6122 66.0842C62.6989 66.2288 62.8228 66.3474 62.9709 66.4274C63.2611 66.5745 63.582 66.6501 63.9071 66.6479C64.2322 66.6457 64.5521 66.5658 64.8403 66.4147Z" fill="#263238"/>
<path d="M63.2662 66.7622L51.273 58.6346L51.4587 58.5286C51.5114 58.5034 51.5691 58.4903 51.6275 58.4903C51.6859 58.4903 51.7436 58.5034 51.7963 58.5286L63.5237 66.58L63.2662 66.7622Z" fill="#FFC656"/>
<path opacity="0.2" d="M63.2662 66.7622L51.273 58.6346L51.4587 58.5286C51.5114 58.5034 51.5691 58.4903 51.6275 58.4903C51.6859 58.4903 51.7436 58.5034 51.7963 58.5286L63.5237 66.58L63.2662 66.7622Z" fill="black"/>
<path d="M51.5094 58.6769C51.3237 58.571 51.1718 58.6769 51.1718 58.8761V75.5509C51.178 75.6687 51.2123 75.7834 51.2717 75.8851C51.3312 75.9869 51.4142 76.0728 51.5136 76.1357L63.4646 84.3439V66.8809L51.5094 58.6769Z" fill="#FFC656"/>
<path d="M66.8068 64.9401L66.8111 82.4031L63.4604 84.3439V66.8766L66.8068 64.9401Z" fill="#FFC656"/>
<path opacity="0.1" d="M66.8068 64.9401L66.8111 82.4031L63.4604 84.3439V66.8766L66.8068 64.9401Z" fill="black"/>
<path d="M66.1401 68.7708C66.0976 68.6906 66.0375 68.6211 65.9644 68.5675C65.8913 68.514 65.8071 68.4777 65.7181 68.4615C65.5175 68.439 65.3152 68.4853 65.1442 68.5928C64.8712 68.7702 64.6442 69.0103 64.482 69.2933C64.3198 69.5762 64.2271 69.8939 64.2115 70.2201C64.2065 70.387 64.2458 70.5523 64.3255 70.6989C64.3769 70.7816 64.4451 70.8523 64.5257 70.9066C64.6063 70.9609 64.6974 70.9975 64.7931 71.0139C64.8887 71.0303 64.9868 71.0262 65.0807 71.0018C65.1747 70.9775 65.2625 70.9335 65.3383 70.8726C65.6122 70.697 65.8402 70.4579 66.0032 70.1755C66.1662 69.8932 66.2595 69.5757 66.2751 69.2497C66.2759 69.0832 66.2368 68.9189 66.1612 68.7708H66.1401Z" fill="#455A64"/>
<path d="M65.2244 68.7623C65.6844 68.4953 66.0684 68.7115 66.0684 69.2496C66.0523 69.5417 65.9674 69.8258 65.8207 70.0785C65.674 70.3311 65.4696 70.5452 65.2244 70.7031C64.7644 70.9743 64.3804 70.754 64.3804 70.22C64.3974 69.9276 64.4827 69.6434 64.6293 69.3902C64.7759 69.1369 64.9798 68.9219 65.2244 68.7623Z" fill="#F5F5F5"/>
<path d="M65.0598 72.3812L65.313 72.2329C65.8194 71.9405 66.2329 72.1778 66.2329 72.7668V80.3351C66.2155 80.6553 66.1232 80.9668 65.9633 81.2444C65.8035 81.522 65.5807 81.7578 65.313 81.9327L65.0598 82.081C64.5534 82.3734 64.1398 82.1361 64.1398 81.547V73.9787C64.1572 73.6586 64.2496 73.347 64.4094 73.0694C64.5693 72.7918 64.7921 72.556 65.0598 72.3812Z" fill="#F5F5F5"/>
<path d="M66.6085 64.8214L63.2747 66.7537L63.4604 66.8766L66.8069 64.9401L66.6085 64.8214Z" fill="#FFC656"/>
<path opacity="0.2" d="M66.6085 64.8214L63.2747 66.7537L63.4604 66.8766L66.8069 64.9401L66.6085 64.8214Z" fill="black"/>
<path d="M62.6713 84.6405C62.7092 84.6115 62.7403 84.5745 62.7622 84.5319C62.7841 84.4894 62.7963 84.4425 62.7979 84.3947V67.2749C62.7951 67.2233 62.7803 67.1729 62.7547 67.128C62.729 67.0831 62.6932 67.0449 62.6502 67.0165L50.218 58.8676L49.9648 59.0159V76.4747L62.3885 84.6278C62.431 84.6531 62.479 84.6676 62.5283 84.6698C62.5776 84.672 62.6267 84.6619 62.6713 84.6405Z" fill="#FFC656"/>
<path opacity="0.1" d="M62.494 67.2749L62.7472 67.1266C62.7735 67.1719 62.7894 67.2226 62.7936 67.2749V84.3947C62.792 84.4425 62.7798 84.4894 62.7579 84.5319C62.736 84.5744 62.705 84.6115 62.667 84.6404C62.6238 84.6621 62.5761 84.6734 62.5278 84.6734C62.4794 84.6734 62.4317 84.6621 62.3885 84.6404C62.4687 84.6871 62.5362 84.6404 62.5362 84.5557V67.4359C62.5387 67.3792 62.524 67.323 62.494 67.2749Z" fill="black"/>
<path opacity="0.5" d="M49.9733 59.0159L62.3885 67.1648C62.4336 67.1904 62.4703 67.2287 62.494 67.275C62.5231 67.319 62.5392 67.3704 62.5404 67.4233V84.543C62.5404 84.6363 62.4729 84.6744 62.3927 84.6278L49.9733 76.4747V59.0159Z" fill="black"/>
<path opacity="0.2" d="M49.9733 59.0159L50.2265 58.8676L62.6459 67.0165C62.688 67.0445 62.7227 67.0823 62.7472 67.1266L62.494 67.2749C62.4703 67.2287 62.4336 67.1904 62.3885 67.1648L49.9733 59.0159Z" fill="black"/>
<path d="M50.1758 59.1303L50.18 76.5933L46.8293 78.5384L46.8631 61.0542L50.1758 59.1303Z" fill="#FFC656"/>
<path opacity="0.7" d="M50.1758 59.1303L50.18 76.5933L46.8293 78.5384L46.8631 61.0542L50.1758 59.1303Z" fill="black"/>
<path d="M60.768 85.5262C60.8252 85.5539 60.888 85.5684 60.9516 85.5684C61.0151 85.5684 61.0779 85.5539 61.1351 85.5262L61.8145 85.1321C61.8665 85.0961 61.9098 85.0489 61.9412 84.9939C61.9727 84.9389 61.9914 84.8775 61.996 84.8143V67.775C61.9909 67.7114 61.9715 67.6498 61.9394 67.5948C61.9072 67.5397 61.8631 67.4927 61.8103 67.4572L50.9481 60.7534L49.9015 61.3593V78.8223L60.768 85.5262Z" fill="#EBEBEB"/>
<path d="M49.9057 78.8138L60.768 85.5261C60.8693 85.5854 60.9495 85.5261 60.9495 85.4202V68.3809C60.945 68.3166 60.9259 68.2541 60.8937 68.1983C60.8615 68.1425 60.8171 68.0948 60.7638 68.0589L49.8973 61.3466L49.9057 78.8138Z" fill="#FAFAFA"/>
<path d="M50.7033 62.5458C50.701 62.5024 50.6924 62.4596 50.678 62.4187C50.6586 62.3535 50.6239 62.2939 50.5767 62.245L50.5218 62.2026C50.4248 62.1433 50.3446 62.2026 50.3446 62.3382C50.3456 62.3999 50.36 62.4606 50.3868 62.5162C50.4155 62.5841 50.464 62.6418 50.5261 62.6814C50.64 62.728 50.7033 62.6729 50.7033 62.5458Z" fill="#263238"/>
<path d="M60.8946 68.203L61.9454 67.5928C61.9789 67.6493 61.9978 67.7135 62.0003 67.7792V84.8142C61.9951 84.8778 61.9758 84.9394 61.9436 84.9945C61.9115 85.0495 61.8674 85.0965 61.8146 85.132L61.1352 85.5261C61.0853 85.5482 61.0314 85.5596 60.9769 85.5596C60.9224 85.5596 60.8685 85.5482 60.8187 85.5261C60.8946 85.5473 60.9495 85.5007 60.9495 85.399V68.381C60.9486 68.3176 60.9295 68.2558 60.8946 68.203Z" fill="#E6E6E6"/>
<path d="M48.2684 61.6814C48.2747 61.8158 48.3173 61.946 48.3916 62.0579C48.4659 62.1699 48.5692 62.2595 48.6904 62.317C49.2696 62.5869 49.9274 62.6336 50.5387 62.4484L50.4459 62.211C49.9059 62.3712 49.3266 62.3321 48.8128 62.1009C48.7136 62.0496 48.6303 61.9719 48.5722 61.8763C48.5358 61.8181 48.5181 61.75 48.5216 61.6814C48.5216 61.4483 48.7452 61.1898 49.1124 60.9906C49.4563 60.8018 49.838 60.6928 50.2295 60.6716C50.6209 60.6503 51.0121 60.7173 51.3743 60.8677C51.492 60.9293 51.5867 61.0274 51.6444 61.1474L51.9145 61.3084V61.2873C51.914 61.1758 51.8849 61.0663 51.8301 60.9694C51.7479 60.8351 51.6313 60.7253 51.4925 60.6516C51.094 60.4783 50.6613 60.3988 50.2275 60.4194C49.7937 60.4399 49.3704 60.56 48.99 60.7703C48.8012 60.846 48.6353 60.9699 48.5088 61.1297C48.3822 61.2894 48.2994 61.4796 48.2684 61.6814Z" fill="#263238"/>
<path d="M60.5401 85.8736C60.5798 85.846 60.6124 85.8093 60.6351 85.7666C60.6579 85.7238 60.6702 85.6763 60.671 85.6278V68.5081C60.6682 68.4564 60.6534 68.406 60.6278 68.3611C60.6021 68.3162 60.5663 68.278 60.5233 68.2496L46.9011 60.7999L46.6479 60.9482V78.407L60.2743 85.8609C60.3144 85.8841 60.3594 85.8973 60.4057 85.8995C60.4519 85.9017 60.498 85.8928 60.5401 85.8736Z" fill="#FFC656"/>
<path opacity="0.1" d="M60.3671 68.5081L60.6203 68.364C60.6458 68.4079 60.6603 68.4573 60.6625 68.5081V85.6279C60.6699 85.6799 60.6614 85.7329 60.638 85.7798C60.6146 85.8268 60.5776 85.8655 60.5318 85.8909C60.4859 85.9162 60.4335 85.9269 60.3815 85.9215C60.3295 85.9162 60.2803 85.895 60.2405 85.8609C60.3207 85.9076 60.3882 85.8609 60.3882 85.7762V68.6564C60.3926 68.606 60.3854 68.5553 60.3671 68.5081Z" fill="black"/>
<path d="M46.6395 60.9482L60.2616 68.3809C60.3054 68.4086 60.3418 68.4466 60.3675 68.4917C60.3933 68.5368 60.4076 68.5875 60.4093 68.6394V85.7592C60.4093 85.8524 60.3418 85.8906 60.2616 85.8439L46.6353 78.3901L46.6395 60.9482Z" fill="#FFC656"/>
<path opacity="0.2" d="M46.6395 60.9482L46.8927 60.7999L60.5148 68.2496C60.5593 68.2779 60.5956 68.3173 60.6203 68.364L60.3671 68.5081C60.341 68.4636 60.3049 68.4258 60.2616 68.3979L46.6395 60.9482Z" fill="black"/>
<path d="M49.9733 59.0159L46.6437 60.9483L46.8631 61.0542L50.1758 59.1303L49.9733 59.0159Z" fill="#FFC656"/>
<path opacity="0.2" d="M49.9733 59.0159L46.6437 60.9483L46.8631 61.0542L50.1758 59.1303L49.9733 59.0159Z" fill="black"/>
<path d="M46.842 61.3932C46.8062 61.3719 46.7654 61.3607 46.7239 61.3607C46.6823 61.3607 46.6415 61.3719 46.6057 61.3932L46.3441 61.5415L46.5044 78.2884C46.5109 78.4056 46.5448 78.5197 46.6035 78.6214C46.6621 78.723 46.7439 78.8092 46.842 78.8731L59.8945 86.4414V68.9572L46.842 61.3932Z" fill="#FFC656"/>
<path opacity="0.2" d="M46.842 61.3932C46.8062 61.3719 46.7654 61.3607 46.7239 61.3607C46.6823 61.3607 46.6415 61.3719 46.6057 61.3932L46.3441 61.5415L46.5044 78.2884C46.5109 78.4056 46.5448 78.5197 46.6035 78.6214C46.6621 78.723 46.7439 78.8092 46.842 78.8731L59.8945 86.4414V68.9572L46.842 61.3932Z" fill="black"/>
<path d="M46.5719 61.5415C46.3862 61.4313 46.2343 61.5203 46.2343 61.7364V78.4112C46.2404 78.5292 46.2742 78.644 46.3329 78.7464C46.3915 78.8487 46.4734 78.9357 46.5719 79.0003L59.6244 86.5686V69.1056L46.5719 61.5415Z" fill="#FFC656"/>
<path opacity="0.5" d="M46.5719 61.5415C46.3862 61.4313 46.2343 61.5203 46.2343 61.7364V78.4112C46.2404 78.5292 46.2742 78.644 46.3329 78.7464C46.3915 78.8487 46.4734 78.9357 46.5719 79.0003L59.6244 86.5686V69.1056L46.5719 61.5415Z" fill="black"/>
<path d="M56.4172 84.9456L46.7576 79.3393C46.6589 79.275 46.5768 79.1881 46.5181 79.0857C46.4594 78.9833 46.4258 78.8683 46.42 78.7503V63.3722L45.154 62.6476L46.4453 61.8975C46.4625 61.8763 46.4836 61.8588 46.5076 61.8458C46.5315 61.8329 46.5577 61.8248 46.5848 61.822C46.6118 61.8193 46.6391 61.8219 46.6652 61.8298C46.6912 61.8376 46.7154 61.8506 46.7365 61.8678L57.814 68.2962V85.755L56.4045 86.5728L56.4172 84.9456Z" fill="#EBEBEB"/>
<path d="M45.3482 62.6984C45.1625 62.5882 45.0106 62.6772 45.0106 62.8933V79.5681C45.0173 79.6859 45.0514 79.8005 45.11 79.9027C45.1686 80.005 45.2501 80.0921 45.3482 80.1571L56.4172 86.577V69.114L45.3482 62.6984Z" fill="#FAFAFA"/>
<path d="M56.413 69.114L57.8182 68.2961L57.8267 85.7591L56.4172 86.577L56.413 69.114Z" fill="#E6E6E6"/>
<path d="M55.953 69.5887C55.9503 69.544 55.9418 69.4998 55.9277 69.4573C55.9065 69.3932 55.8703 69.3351 55.8222 69.2878C55.8095 69.2693 55.792 69.2546 55.7716 69.2454C55.6745 69.1861 55.5901 69.2454 55.5943 69.381C55.5941 69.4429 55.6086 69.5039 55.6365 69.559C55.6649 69.6259 55.7118 69.6832 55.7716 69.7243H55.7969C55.8855 69.7709 55.953 69.7158 55.953 69.5887Z" fill="#263238"/>
<path d="M57.9068 70.4319C58.0842 70.34 58.2254 70.1907 58.3077 70.0082C58.3416 69.9218 58.3554 69.8288 58.3481 69.7363C58.3408 69.6438 58.3125 69.5542 58.2655 69.4742C58.1799 69.3323 58.0574 69.2166 57.9111 69.1395C57.883 69.12 57.8534 69.103 57.8224 69.0886V69.309C57.9218 69.3445 58.0077 69.4099 58.0685 69.4964C58.1293 69.5829 58.1619 69.6862 58.1619 69.7921C58.1619 69.8979 58.1293 70.0012 58.0685 70.0877C58.0077 70.1742 57.9218 70.2397 57.8224 70.2751C57.5613 70.4097 57.272 70.4799 56.9784 70.4799C56.6849 70.4799 56.3956 70.4097 56.1344 70.2751C56.0303 70.2327 55.9416 70.1591 55.8805 70.0643C55.8194 69.9696 55.7887 69.8583 55.7926 69.7454C55.8029 69.6411 55.8492 69.5437 55.9234 69.47C55.9022 69.4059 55.8661 69.3477 55.8179 69.3005C55.7358 69.3751 55.6722 69.468 55.6323 69.5717C55.6065 69.6559 55.5995 69.7447 55.6119 69.8319C55.6243 69.9191 55.6558 70.0024 55.704 70.076C55.791 70.2193 55.9149 70.3365 56.0627 70.415C56.3467 70.5645 56.6621 70.644 56.9827 70.6469C57.3034 70.6499 57.6201 70.5762 57.9068 70.4319Z" fill="#263238"/>
<path d="M56.3328 70.7836L44.3395 62.6729L44.5252 62.567C44.5774 62.5399 44.6353 62.5257 44.694 62.5257C44.7528 62.5257 44.8106 62.5399 44.8628 62.567L56.5902 70.6183L56.3328 70.7836Z" fill="#FFC656"/>
<path opacity="0.2" d="M56.3328 70.7836L44.3395 62.6729L44.5252 62.567C44.5774 62.5399 44.6353 62.5257 44.694 62.5257C44.7528 62.5257 44.8106 62.5399 44.8628 62.567L56.5902 70.6183L56.3328 70.7836Z" fill="black"/>
<path d="M44.5759 62.6984C44.3902 62.5882 44.2383 62.6772 44.2383 62.8933V79.5681C44.2444 79.686 44.2782 79.8009 44.3368 79.9032C44.3955 80.0056 44.4774 80.0926 44.5759 80.1571L56.548 88.3611V70.8981L44.5759 62.6984Z" fill="#FFC656"/>
<path d="M59.8734 68.9573L59.8776 86.4203L56.5269 88.3653V70.8981L59.8734 68.9573Z" fill="#FFC656"/>
<path opacity="0.1" d="M59.8734 68.9573L59.8776 86.4203L56.5269 88.3653V70.8981L59.8734 68.9573Z" fill="black"/>
<path d="M59.2066 72.788C59.1639 72.7084 59.1037 72.6396 59.0306 72.5867C58.9575 72.5339 58.8734 72.4984 58.7846 72.4829C58.5839 72.4584 58.381 72.5048 58.2107 72.6143C57.9378 72.7907 57.7108 73.03 57.5486 73.3123C57.3864 73.5946 57.2936 73.9117 57.2781 74.2373C57.2697 74.4113 57.3091 74.5843 57.392 74.7373C57.4439 74.8194 57.5123 74.8897 57.5929 74.9436C57.6736 74.9975 57.7645 75.0338 57.86 75.0502C57.9554 75.0666 58.0533 75.0626 58.1471 75.0387C58.241 75.0147 58.3288 74.9712 58.4048 74.911C58.6788 74.7344 58.9068 74.4946 59.0698 74.2115C59.2328 73.9285 59.326 73.6104 59.3417 73.2838C59.3433 73.1167 59.3026 72.952 59.2235 72.805L59.2066 72.788Z" fill="#455A64"/>
<path d="M58.2909 72.7838C58.7509 72.5168 59.1349 72.7329 59.1349 73.2711C59.1188 73.5632 59.034 73.8473 58.8872 74.1C58.7405 74.3526 58.5361 74.5667 58.2909 74.7246C57.8309 74.9916 57.4469 74.7755 57.4469 74.2415C57.4633 73.949 57.5483 73.6645 57.695 73.4111C57.8416 73.1578 58.0458 72.9429 58.2909 72.7838Z" fill="#F5F5F5"/>
<path d="M58.1263 76.3984L58.3795 76.2544C58.8859 75.9577 59.2995 76.1993 59.2995 76.7841V84.3523C59.2817 84.673 59.1893 84.985 59.0295 85.2633C58.8697 85.5415 58.6471 85.7781 58.3795 85.9541L58.1263 86.0982C57.6199 86.3949 57.2064 86.1533 57.2064 85.5685V78.0002C57.2241 77.6796 57.3166 77.3675 57.4764 77.0893C57.6362 76.8111 57.8588 76.5745 58.1263 76.3984Z" fill="#F5F5F5"/>
<path d="M59.675 68.8386L56.3412 70.771L56.5269 70.8981L59.8734 68.9573L59.675 68.8386Z" fill="#FFC656"/>
<path opacity="0.2" d="M59.675 68.8386L56.3412 70.771L56.5269 70.8981L59.8734 68.9573L59.675 68.8386Z" fill="black"/>
<path d="M153.659 64.3298L151.992 61.1771L153.334 57.2912V54.9139L149.232 57.2912V59.6727L150.996 62.7365C151.022 62.7856 151.063 62.8244 151.114 62.8467L153.659 64.3298Z" fill="#FFC656"/>
<path opacity="0.2" d="M153.659 64.3298L151.992 61.1771L153.334 57.2912V54.9139L149.232 57.2912V59.6727L150.996 62.7365C151.022 62.7856 151.063 62.8244 151.114 62.8467L153.659 64.3298Z" fill="black"/>
<path d="M163.453 36.0186C163.426 35.5935 163.301 35.1805 163.087 34.8126C162.873 34.4447 162.577 34.1321 162.221 33.8998L161.204 33.3023C160.823 33.108 160.401 33.0068 159.974 33.0068C159.546 33.0068 159.125 33.108 158.744 33.3023L143.391 42.2012C143.036 42.4335 142.739 42.7461 142.525 43.114C142.311 43.4818 142.186 43.8948 142.159 44.32V61.2703C142.186 61.6954 142.311 62.1084 142.525 62.4763C142.739 62.8442 143.036 63.1567 143.391 63.3891L144.392 63.9696C144.773 64.1639 145.194 64.2652 145.622 64.2652C146.049 64.2652 146.471 64.1639 146.852 63.9696L151.789 61.105L153.549 64.1645C153.573 64.2091 153.61 64.2456 153.655 64.2696C153.7 64.2935 153.751 64.3039 153.801 64.2994C153.852 64.2949 153.9 64.2757 153.94 64.2443C153.98 64.2128 154.009 64.1704 154.026 64.1222L155.883 58.7277L162.213 55.0538C162.568 54.8215 162.865 54.5089 163.079 54.141C163.293 53.7731 163.418 53.3601 163.445 52.935L163.453 36.0186Z" fill="#FFC656"/>
<path opacity="0.2" d="M142.176 61.3211C142.203 61.7463 142.328 62.1593 142.542 62.5271C142.756 62.895 143.053 63.2076 143.408 63.4399L144.408 64.0204C144.755 64.1952 145.135 64.2945 145.522 64.3121C145.91 64.3296 146.297 64.2649 146.658 64.1221C146.08 64.3425 145.636 64.0119 145.636 63.3085V46.3455C145.653 45.9159 145.778 45.4974 145.999 45.1294L142.539 43.125C142.316 43.4924 142.191 43.9112 142.176 44.3412V61.3211Z" fill="black"/>
<path opacity="0.3" d="M163.411 35.6711C163.268 35.1456 162.791 34.9803 162.225 35.3066L146.856 44.2267C146.489 44.4514 146.189 44.7703 145.987 45.1505L142.53 43.1419C142.735 42.7659 143.033 42.4492 143.396 42.2223L158.748 33.3235C159.129 33.1292 159.551 33.0279 159.978 33.0279C160.406 33.0279 160.827 33.1292 161.208 33.3235L162.213 33.904C162.521 34.1022 162.786 34.3609 162.992 34.6646C163.198 34.9682 163.34 35.3106 163.411 35.6711Z" fill="white"/>
<path d="M156.224 47.8583C156.203 47.854 156.182 47.854 156.161 47.8583L155.296 47.7863C155.276 47.7875 155.257 47.7846 155.238 47.7779C155.22 47.7712 155.203 47.7607 155.189 47.7472C155.175 47.7337 155.163 47.7175 155.156 47.6994C155.148 47.6813 155.144 47.6619 155.144 47.6422C155.144 47.5024 155.165 47.3625 155.165 47.2185C155.165 47.0744 155.165 46.9218 155.165 46.7947C155.165 46.6996 155.2 46.6078 155.262 46.5362L156.245 45.337C156.274 45.3039 156.295 45.2643 156.305 45.2214C156.316 45.1786 156.315 45.1339 156.305 45.0912L155.836 44.0488C155.831 44.0363 155.822 44.0258 155.811 44.0191C155.773 44.0191 155.714 44.0191 155.659 44.0657L154.608 45.0319C154.58 45.0642 154.541 45.0856 154.499 45.0926C154.457 45.0995 154.413 45.0915 154.376 45.07C154.242 44.9586 154.091 44.8698 153.929 44.8073C153.892 44.7932 153.862 44.7669 153.843 44.733C153.824 44.699 153.817 44.6594 153.823 44.6208L154.148 43.1419C154.153 43.1222 154.151 43.1013 154.143 43.0828C154.134 43.0643 154.12 43.0493 154.102 43.0402C154.07 43.0289 154.036 43.0289 154.005 43.0402L152.975 43.1419C152.927 43.1462 152.882 43.1629 152.842 43.1904C152.803 43.2179 152.772 43.2553 152.751 43.2987L152.19 44.8031C152.142 44.8987 152.063 44.975 151.966 45.0192C151.745 45.1268 151.532 45.2515 151.329 45.3921C151.245 45.4472 151.148 45.4514 151.11 45.3921L150.582 44.5827C150.544 44.5276 150.46 44.5403 150.392 44.6081L149.261 45.8074C149.229 45.84 149.205 45.8793 149.189 45.9225C149.174 45.9657 149.168 46.0117 149.173 46.0574L149.489 47.1252C149.503 47.2152 149.483 47.3072 149.434 47.3837C149.243 47.6759 149.068 47.9787 148.911 48.2906C148.855 48.3798 148.768 48.4448 148.666 48.4728L147.7 48.7101C147.652 48.7217 147.607 48.7442 147.569 48.7758C147.531 48.8074 147.501 48.8472 147.481 48.8923L146.995 50.5365C146.99 50.5544 146.988 50.5734 146.992 50.5918C146.995 50.6103 147.003 50.6276 147.015 50.6423C147.027 50.6569 147.042 50.6685 147.059 50.6759C147.076 50.6833 147.095 50.6864 147.113 50.6848L148 50.7357C148.019 50.7351 148.038 50.7384 148.056 50.7454C148.074 50.7524 148.09 50.7629 148.104 50.7763C148.118 50.7898 148.129 50.8058 148.136 50.8236C148.143 50.8414 148.147 50.8604 148.147 50.8797C148.122 51.1617 148.122 51.4453 148.147 51.7272C148.147 51.8228 148.114 51.9154 148.054 51.99L147.067 53.1892C147.038 53.2223 147.017 53.2619 147.007 53.3048C146.997 53.3476 146.997 53.3923 147.008 53.435L147.476 54.4732C147.481 54.4879 147.492 54.5001 147.506 54.5071H147.54C147.582 54.5014 147.622 54.4821 147.654 54.452L148.704 53.4858C148.733 53.4535 148.771 53.4321 148.814 53.4252C148.856 53.4182 148.899 53.4262 148.936 53.4477C149.071 53.5579 149.222 53.6465 149.384 53.7104C149.421 53.7238 149.451 53.75 149.471 53.7841C149.49 53.8183 149.497 53.8583 149.489 53.8969L149.164 55.3758C149.16 55.395 149.161 55.4153 149.169 55.4336C149.176 55.4519 149.19 55.4672 149.207 55.4775C149.238 55.4888 149.272 55.4888 149.304 55.4775L150.333 55.3758C150.381 55.3707 150.426 55.3537 150.465 55.3263C150.504 55.2989 150.536 55.262 150.557 55.219L151.118 53.7147C151.167 53.6198 151.246 53.5438 151.342 53.4985C151.453 53.4465 151.562 53.3885 151.667 53.3248C151.772 53.2655 151.874 53.1977 151.979 53.1256C152.085 53.0536 152.161 53.0663 152.198 53.1256L152.726 53.935H152.751C152.794 53.9647 152.861 53.935 152.916 53.8884L154.03 52.7019C154.062 52.6696 154.087 52.6302 154.101 52.5868C154.116 52.5434 154.12 52.4973 154.114 52.4519L153.802 51.384C153.788 51.2934 153.809 51.2008 153.861 51.1255C154.054 50.8348 154.227 50.5319 154.38 50.2187C154.436 50.1294 154.524 50.0645 154.625 50.0365L155.591 49.7992C155.64 49.7891 155.685 49.7672 155.724 49.7355C155.762 49.7037 155.792 49.663 155.811 49.6169L156.296 47.9728C156.3 47.9482 156.295 47.9229 156.282 47.9018C156.269 47.8808 156.248 47.8653 156.224 47.8583ZM151.076 51.8756H151.021H150.979H150.886H150.781H150.654C150.446 51.8774 150.243 51.8161 150.07 51.6996C149.898 51.5832 149.764 51.417 149.688 51.223C149.611 51.0512 149.562 50.868 149.544 50.6806C149.538 50.5804 149.538 50.4799 149.544 50.3797C149.605 49.2808 150.054 48.2396 150.81 47.4431C151.038 47.1955 151.299 46.9815 151.587 46.8074C151.675 46.7566 151.764 46.71 151.848 46.6718C152.077 46.5656 152.327 46.5134 152.578 46.5193H152.658H152.701C152.88 46.5458 153.048 46.6189 153.19 46.7311C153.333 46.8433 153.443 46.9909 153.511 47.1591C153.933 48.1295 153.443 49.8246 152.393 50.9391C152.05 51.369 151.594 51.6935 151.076 51.8756Z" fill="#455A64"/>
<path d="M162.407 50.1594H162.356L161.689 50.1212C161.675 50.1224 161.66 50.1205 161.646 50.1157C161.633 50.1109 161.62 50.1033 161.609 50.0934C161.598 50.0834 161.59 50.0713 161.584 50.0579C161.578 50.0445 161.575 50.03 161.575 50.0153C161.575 49.9094 161.575 49.8034 161.575 49.7017C161.582 49.5902 161.582 49.4784 161.575 49.3669C161.576 49.2943 161.602 49.2242 161.647 49.1678L162.398 48.2567C162.42 48.2317 162.436 48.2015 162.443 48.1689C162.45 48.1363 162.45 48.1024 162.44 48.0703L162.086 47.2821L162.065 47.2566C162.035 47.2566 161.993 47.2566 161.951 47.2905L161.145 48.0406C161.123 48.0644 161.093 48.0802 161.061 48.0856C161.029 48.091 160.996 48.0856 160.968 48.0703C160.867 47.9855 160.753 47.9182 160.63 47.8711C160.603 47.8607 160.58 47.8411 160.565 47.8156C160.55 47.7901 160.545 47.7603 160.55 47.7312L160.795 46.6083C160.798 46.593 160.796 46.5771 160.79 46.5627C160.784 46.5483 160.774 46.5361 160.761 46.5278C160.736 46.523 160.71 46.523 160.685 46.5278L159.904 46.6083C159.868 46.6123 159.834 46.6253 159.805 46.646C159.775 46.6667 159.751 46.6946 159.735 46.7269L159.313 47.8668C159.276 47.9398 159.215 47.9979 159.14 48.0321C158.973 48.1125 158.812 48.206 158.659 48.3118C158.592 48.3584 158.52 48.3584 158.491 48.3118L158.09 47.7016C158.064 47.655 157.997 47.6677 157.946 47.7016L157.102 48.6127C157.078 48.637 157.06 48.6663 157.048 48.6985C157.036 48.7306 157.032 48.765 157.035 48.7991L157.275 49.6127C157.285 49.6807 157.27 49.7499 157.233 49.8077C157.087 50.0282 156.955 50.2575 156.836 50.4941C156.795 50.5636 156.728 50.6139 156.651 50.634L155.916 50.812C155.881 50.8207 155.847 50.8374 155.819 50.8609C155.79 50.8843 155.767 50.914 155.752 50.9476L155.38 52.2188C155.376 52.2328 155.375 52.2475 155.378 52.2618C155.381 52.2761 155.387 52.2895 155.397 52.3008C155.406 52.3121 155.417 52.321 155.431 52.3266C155.444 52.3323 155.459 52.3346 155.473 52.3332L156.144 52.3714C156.159 52.3702 156.173 52.3721 156.187 52.3769C156.201 52.3817 156.214 52.3893 156.224 52.3992C156.235 52.4092 156.244 52.4213 156.249 52.4347C156.255 52.4482 156.258 52.4627 156.258 52.4773C156.239 52.693 156.239 52.91 156.258 53.1257C156.259 53.1987 156.234 53.2696 156.186 53.3248L155.439 54.2359C155.417 54.2607 155.401 54.2908 155.393 54.3233C155.385 54.3558 155.385 54.3898 155.393 54.4224L155.748 55.2106L155.769 55.2317H155.802C155.835 55.2287 155.866 55.2154 155.891 55.1936L156.689 54.4605C156.71 54.4364 156.738 54.4203 156.77 54.4149C156.801 54.4095 156.834 54.4151 156.862 54.4308C156.964 54.5148 157.08 54.582 157.203 54.63C157.231 54.6404 157.254 54.66 157.268 54.6855C157.283 54.711 157.288 54.7408 157.284 54.7698L157.035 55.8928C157.032 55.9074 157.034 55.9224 157.04 55.936C157.046 55.9495 157.056 55.961 157.068 55.9691C157.092 55.9763 157.117 55.9763 157.14 55.9691L157.921 55.8886C157.957 55.8845 157.991 55.8716 158.02 55.8508C158.05 55.8301 158.074 55.8023 158.09 55.7699L158.512 54.63C158.547 54.5572 158.607 54.4989 158.68 54.4647C158.765 54.4266 158.845 54.38 158.929 54.3334L159.166 54.1851C159.229 54.1384 159.305 54.1342 159.33 54.1851L159.731 54.7953C159.736 54.8043 159.743 54.8117 159.752 54.8165C159.774 54.8238 159.798 54.824 159.82 54.8172C159.842 54.8103 159.861 54.7967 159.875 54.7783L160.719 53.8672C160.743 53.8429 160.761 53.8136 160.773 53.7814C160.784 53.7493 160.789 53.7149 160.786 53.6808L160.546 52.8672C160.537 52.7987 160.554 52.7296 160.592 52.6722C160.738 52.4526 160.869 52.2232 160.985 51.9858C161.027 51.9172 161.093 51.8672 161.17 51.8459L161.905 51.6679C161.941 51.6597 161.975 51.6427 162.004 51.6184C162.033 51.594 162.055 51.563 162.069 51.5281L162.44 50.2823C162.448 50.2724 162.453 50.261 162.455 50.2489C162.457 50.2368 162.457 50.2244 162.454 50.2125C162.45 50.2006 162.444 50.1897 162.436 50.1805C162.428 50.1712 162.418 50.164 162.407 50.1594ZM158.491 53.2062H158.448H158.419H158.347H158.267H158.195C158.037 53.2084 157.882 53.1622 157.751 53.0736C157.62 52.985 157.518 52.8583 157.461 52.7104C157.4 52.5766 157.363 52.4332 157.351 52.2866C157.347 52.2118 157.347 52.1368 157.351 52.062C157.398 51.2262 157.743 50.4352 158.322 49.8331C158.494 49.6438 158.693 49.481 158.913 49.35C158.972 49.3347 159.033 49.3219 159.094 49.3119C159.269 49.2318 159.459 49.1927 159.651 49.1974H159.744C159.88 49.2176 160.007 49.2732 160.115 49.3588C160.222 49.4443 160.305 49.5567 160.356 49.6848C160.685 50.4179 160.305 51.7018 159.512 52.5494C159.24 52.8644 158.886 53.0977 158.491 53.2231V53.2062Z" fill="#455A64"/>
<path d="M100.601 95.5226L98.0011 94.0436C97.5431 93.7811 97.1623 93.402 96.8971 92.9444C96.6318 92.4868 96.4915 91.967 96.4903 91.4375V77.6485H97.8702V91.4375C97.8692 91.7225 97.9437 92.0026 98.0861 92.2491C98.2285 92.4956 98.4336 92.6996 98.6805 92.8402L101.28 94.3233L100.601 95.5226Z" fill="#263238"/>
<path d="M92.8991 82.6827C92.6725 82.5281 92.4853 82.3221 92.3526 82.0813C92.2199 81.8406 92.1454 81.572 92.1353 81.297V69.0081C92.1493 68.7314 92.2344 68.463 92.3823 68.2291C92.5302 67.9952 92.7359 67.8037 92.9793 67.6733L106.517 61.3932C106.774 61.2871 107.05 61.2365 107.328 61.2445C107.606 61.2526 107.879 61.3191 108.129 61.4398C108.356 61.5944 108.543 61.8004 108.676 62.0412C108.808 62.2819 108.883 62.5505 108.893 62.8255V75.1144C108.879 75.3911 108.794 75.6595 108.646 75.8934C108.498 76.1273 108.292 76.3188 108.049 76.4492L94.528 82.7293C94.2687 82.8378 93.9894 82.8898 93.7085 82.8818C93.4277 82.8737 93.1518 82.8059 92.8991 82.6827Z" fill="#455A64"/>
<path d="M95.1821 69.8387L92.3927 68.2199C92.2355 68.455 92.1464 68.7294 92.1353 69.0123V81.3013C92.1454 81.5762 92.2199 81.8449 92.3526 82.0856C92.4853 82.3263 92.6725 82.5323 92.8991 82.6869C93.1495 82.8077 93.4225 82.8742 93.7002 82.8822C93.9779 82.8902 94.2542 82.8396 94.5111 82.7336L95.1821 82.42V69.8387Z" fill="#263238"/>
<path d="M94.528 68.5589L108.032 62.2831C108.121 62.2261 108.225 62.196 108.33 62.1964C108.436 62.1967 108.54 62.2274 108.628 62.285C108.717 62.3425 108.788 62.4244 108.832 62.5209C108.875 62.6175 108.891 62.7246 108.876 62.8297V75.1187C108.862 75.3954 108.777 75.6637 108.629 75.8976C108.481 76.1315 108.275 76.323 108.032 76.4535L94.528 82.7293C94.4385 82.7844 94.3354 82.8131 94.2304 82.8119C94.1254 82.8107 94.0229 82.7798 93.9347 82.7226C93.8465 82.6655 93.7762 82.5845 93.7318 82.489C93.6875 82.3934 93.6709 82.2873 93.684 82.1827V69.8937C93.6989 69.6172 93.7843 69.3492 93.9321 69.1155C94.0799 68.8817 94.2851 68.69 94.528 68.5589Z" fill="#37474F"/>
<path d="M97.482 96.315V119.376C97.4765 119.482 97.4462 119.586 97.3934 119.679C97.3406 119.772 97.2669 119.851 97.1782 119.91L96.3595 120.384C96.2646 120.432 96.1598 120.457 96.0535 120.457C95.9473 120.457 95.8425 120.432 95.7476 120.384L94.95 119.91C94.8613 119.851 94.7875 119.772 94.7348 119.679C94.682 119.586 94.6516 119.482 94.6461 119.376V96.315C94.6461 96.0407 94.7546 95.7778 94.9477 95.5838C95.1408 95.3899 95.4027 95.281 95.6758 95.281H96.4692C96.7393 95.2855 96.9969 95.3964 97.1864 95.5898C97.3759 95.7832 97.482 96.0437 97.482 96.315Z" fill="#263238"/>
<path d="M95.372 95.281C95.5611 95.281 95.7425 95.3565 95.8763 95.4908C96.01 95.6251 96.0852 95.8072 96.0852 95.9972V120.249C96.0852 120.418 95.967 120.49 95.8193 120.406L94.95 119.901C94.8653 119.845 94.7949 119.77 94.7443 119.682C94.6937 119.593 94.6645 119.494 94.6588 119.393V95.9972C94.6588 95.8072 94.734 95.6251 94.8677 95.4908C95.0014 95.3565 95.1828 95.281 95.372 95.281Z" fill="#37474F"/>
<path d="M112.961 104.4V128.131C112.955 128.237 112.925 128.34 112.872 128.432C112.819 128.524 112.746 128.602 112.657 128.66L111.83 129.16C111.735 129.208 111.63 129.233 111.524 129.233C111.418 129.233 111.313 129.208 111.218 129.16L110.399 128.686C110.311 128.628 110.237 128.55 110.184 128.457C110.131 128.365 110.101 128.262 110.096 128.156V104.4C110.096 104.307 110.132 104.217 110.198 104.15C110.263 104.083 110.353 104.045 110.446 104.044H112.602C112.649 104.044 112.696 104.053 112.739 104.07C112.783 104.088 112.822 104.114 112.856 104.147C112.889 104.18 112.915 104.22 112.934 104.263C112.952 104.306 112.961 104.353 112.961 104.4Z" fill="#263238"/>
<path d="M110.454 104.057H111.18C111.273 104.058 111.362 104.096 111.428 104.163C111.494 104.229 111.53 104.319 111.53 104.413V128.991C111.53 129.186 111.395 129.262 111.227 129.165L110.408 128.69C110.319 128.632 110.245 128.554 110.193 128.462C110.14 128.37 110.109 128.266 110.104 128.16V104.4C110.107 104.309 110.145 104.222 110.211 104.158C110.276 104.094 110.363 104.058 110.454 104.057Z" fill="#37474F"/>
<path d="M94.6419 95.8234V96.1412C94.6571 96.4294 94.7326 96.7113 94.8635 96.9683C94.9944 97.2253 95.1777 97.4517 95.4015 97.6328L110.771 108.396C111.003 108.547 111.271 108.634 111.547 108.648C111.823 108.662 112.098 108.603 112.345 108.477L131.664 97.2642C131.901 97.1106 132.099 96.9026 132.241 96.6573C132.382 96.4119 132.464 96.1363 132.478 95.853V95.5268C132.466 95.2492 132.381 94.9798 132.233 94.7451C132.085 94.5103 131.879 94.3182 131.634 94.1877L112.628 85.3312C112.361 85.226 112.075 85.1784 111.788 85.1915C111.502 85.2047 111.221 85.2782 110.965 85.4074L95.4522 94.408C95.2161 94.5637 95.0198 94.7729 94.8791 95.0187C94.7383 95.2646 94.6571 95.5402 94.6419 95.8234Z" fill="#37474F"/>
<path d="M95.4522 94.408L110.986 85.4074C111.242 85.2782 111.523 85.2047 111.809 85.1915C112.096 85.1784 112.382 85.226 112.649 85.3312L131.664 94.1877C132.137 94.408 132.154 94.7937 131.702 95.0352L112.345 106.265C112.099 106.392 111.823 106.451 111.547 106.437C111.271 106.423 111.003 106.336 110.771 106.184L95.4015 95.4335C95.3071 95.3828 95.2289 95.3061 95.1761 95.2125C95.1233 95.1189 95.0981 95.0121 95.1034 94.9047C95.1087 94.7972 95.1443 94.6935 95.2061 94.6056C95.2678 94.5176 95.3532 94.4491 95.4522 94.408Z" fill="#455A64"/>
<path d="M117.67 137.169H121.663V130.304H117.67V137.169Z" fill="#FFA8A7"/>
<path d="M129.233 128.631L133.225 128.766L133.428 121.499L129.436 121.363L129.233 128.631Z" fill="#FFA8A7"/>
<path d="M121.663 135.364V134.652C122.085 134.834 123.967 138.847 125.688 140.424C127.06 141.695 129.486 143.39 129.406 144.585C129.33 146.119 127.153 146.801 125.271 146.356C123.802 146.009 121.705 145.115 120.696 144.026C119.688 142.937 119.363 141.483 118.839 140.784C118.316 140.085 117.101 139.275 116.818 138.449C116.662 137.996 116.848 137 117.067 136.161C117.265 135.39 117.489 134.542 117.746 134.614V135.089C118.063 135.44 118.932 135.788 119.915 135.826C120.553 135.851 121.667 135.851 121.663 135.364Z" fill="#263238"/>
<path d="M133.268 127.529C133.474 127.529 133.643 127.83 134.112 128.33C134.664 128.927 135.901 129.559 136.791 130.004C138.289 130.758 142.201 131.766 143.518 132.36C144.341 132.733 144.134 134.017 142.969 134.737C142.1 135.275 139.332 135.792 136.867 135.241C135.525 134.936 133.491 134.004 132.487 133.847C131.39 133.673 129.377 133.461 128.562 132.898C127.748 132.334 128.073 131.127 128.305 130.088C128.554 128.957 128.917 127.224 129.288 127.3V127.656C129.769 128.389 132.213 128.686 133.268 128.148V127.529Z" fill="#263238"/>
<path d="M101.58 88.5433C100.706 94.7428 101.883 95.9336 107.749 101.87C110.906 105.061 115.987 109.744 115.987 109.744C115.987 109.744 115.915 111.723 115.873 116.164C115.835 120.071 117.464 132.796 117.464 132.796C117.464 132.796 120.114 133.915 121.933 132.754C121.933 132.754 122.756 123.287 123.199 118.346C123.802 111.659 124.114 108.307 123.777 106.867C123.477 105.595 117.506 98.0312 116.126 95.9039L128.815 103.307C128.569 105.183 128.445 107.072 128.444 108.964C128.583 114.274 129.233 124.872 129.233 124.872C129.233 124.872 132.141 126.177 133.58 125.05C133.58 125.05 137.239 101.87 137.239 99.9678C137.239 97.0777 124.735 88.4501 122.367 86.4372C121.017 85.2931 119.51 84.0684 119.51 84.0684L101.58 88.5433Z" fill="#FFC656"/>
<path opacity="0.3" d="M101.58 88.5433C100.706 94.7428 101.883 95.9336 107.749 101.87C110.906 105.061 115.987 109.744 115.987 109.744C115.987 109.744 115.915 111.723 115.873 116.164C115.835 120.071 117.464 132.796 117.464 132.796C117.464 132.796 120.114 133.915 121.933 132.754C121.933 132.754 122.756 123.287 123.199 118.346C123.802 111.659 124.114 108.307 123.777 106.867C123.477 105.595 117.506 98.0312 116.126 95.9039L128.815 103.307C128.569 105.183 128.445 107.072 128.444 108.964C128.583 114.274 129.233 124.872 129.233 124.872C129.233 124.872 132.141 126.177 133.58 125.05C133.58 125.05 137.239 101.87 137.239 99.9678C137.239 97.0777 124.735 88.4501 122.367 86.4372C121.017 85.2931 119.51 84.0684 119.51 84.0684L101.58 88.5433Z" fill="black"/>
<path opacity="0.1" d="M116.126 95.9252C117.463 94.8427 118.468 93.4032 119.025 91.7723C118.957 92.8363 118.806 93.8933 118.574 94.9336C118.232 96.3108 128.815 103.328 128.815 103.328L116.126 95.9252Z" fill="black"/>
<path d="M123.477 74.1398C123.477 74.1398 124.178 67.8173 124.178 65.5036C124.178 63.0246 123.135 61.5584 119.928 61.4864C119.928 61.4864 117.599 77.4874 118.861 78.6951C119.553 79.3562 122.574 80.352 125.579 81.2377L127.237 76.4323C126.106 75.7543 124.857 74.9915 123.477 74.1398Z" fill="#FFA8A7"/>
<path d="M119.426 61.2491C119.426 61.2491 122.076 61.3169 123.254 62.4483C124.431 63.5797 124.46 64.5459 124.338 66.635C124.216 68.7241 123.802 74.144 123.802 74.144C123.802 74.144 121.81 76.0339 117.337 75.839L119.426 61.2491Z" fill="#E0E0E0"/>
<path d="M106.614 64.8468C105.665 66.2791 102.858 73.5084 101.478 89.2382C104.28 92.2977 118.08 92.9715 122.367 86.4499C122.367 86.4499 123.811 73.3812 123.781 70.2581C123.76 68.0928 123.701 62.8636 119.928 61.4864H114.987L109.353 62.4483C108.251 62.9995 107.308 63.8253 106.614 64.8468Z" fill="#F5F5F5"/>
<path d="M114.657 48.8881C114.604 50.0133 114.885 51.129 115.463 52.0941C116.042 53.0592 116.892 53.8304 117.907 54.3101C118.922 54.7899 120.056 54.9566 121.165 54.7893C122.274 54.622 123.309 54.1281 124.139 53.3702C124.969 52.6122 125.556 51.6241 125.827 50.531C126.098 49.4378 126.039 48.2886 125.659 47.2288C125.28 46.1689 124.595 45.2459 123.693 44.5765C122.791 43.9072 121.711 43.5215 120.591 43.4683C119.847 43.4324 119.103 43.5442 118.402 43.7972C117.701 44.0502 117.056 44.4396 116.505 44.943C115.954 45.4463 115.507 46.0539 115.19 46.7308C114.873 47.4078 114.692 48.1409 114.657 48.8881Z" fill="#263238"/>
<path d="M110.34 52.7485C110.34 52.7485 111.053 57.1217 111.387 57.8336C111.612 58.2832 112 58.6289 112.471 58.7998L112.552 55.753L110.34 52.7485Z" fill="#263238"/>
<path d="M111.784 46.5998C111.464 46.5472 111.137 46.5683 110.827 46.6616C110.517 46.7548 110.232 46.9178 109.994 47.138C109.205 47.8753 109.509 50.3246 110.34 52.7485L112.058 53.0282L111.784 46.5998Z" fill="#263238"/>
<path d="M112.577 53.0537C112.222 53.2444 111.758 52.5537 111.353 52.0833C110.948 51.6129 109.576 50.9349 108.821 52.3757C108.066 53.8165 109.273 55.8886 110.353 56.287C112.218 56.9734 112.56 55.77 112.56 55.77L112.383 62.6348C113.927 64.5417 119.844 66.2325 118.552 62.745L118.645 60.6559C119.478 60.8304 120.327 60.9157 121.177 60.9101C122.583 60.7618 123.511 59.6982 124.005 58.2066C124.798 55.8081 125.148 53.8546 124.798 49.045C124.414 43.7777 118.346 43.4344 114.97 45.3498C111.594 47.2652 112.577 53.0537 112.577 53.0537Z" fill="#FFA8A7"/>
<path d="M112.552 53.6384C112.395 53.5579 111.762 52.4985 111.353 52.0833C110.779 51.5112 111.775 46.5999 111.775 46.5999C111.639 46.1641 111.632 45.6978 111.756 45.2582C111.879 44.8187 112.128 44.4249 112.471 44.1251C113.073 43.4941 113.831 43.034 114.666 42.7914C115.502 42.5488 116.387 42.5323 117.232 42.7437C118.741 43.0858 120.266 43.3517 121.802 43.5403C123.404 43.7204 125.025 43.5275 126.541 42.9767C126.67 43.8355 126.568 44.7133 126.246 45.5193C125.904 46.2738 125.334 46.901 124.617 47.3118C123.806 47.7821 122.983 48.066 121.291 48.1339C119.208 48.2525 117.119 48.0263 115.109 47.4643C114.472 47.3457 114.303 47.9643 113.877 49.6594C113.518 51.1256 113.898 54.3631 112.552 53.6384Z" fill="#263238"/>
<path d="M111.771 46.9855L109.72 45.7523C109.794 45.6139 109.895 45.4919 110.017 45.3938C110.139 45.2956 110.28 45.2234 110.43 45.1814C110.581 45.1394 110.739 45.1285 110.894 45.1495C111.049 45.1704 111.198 45.2227 111.332 45.3032C111.604 45.4751 111.801 45.7447 111.883 46.0572C111.964 46.3696 111.924 46.7015 111.771 46.9855Z" fill="#263238"/>
<path d="M118.637 60.6558C118.637 60.6558 115.556 59.8804 114.497 59.249C113.874 58.8841 113.376 58.3392 113.066 57.6853C113.201 58.3316 113.463 58.9442 113.839 59.4863C114.581 60.5457 118.599 61.4864 118.599 61.4864L118.637 60.6558Z" fill="#F28F8F"/>
<path d="M119.426 52.8757C119.415 52.998 119.369 53.1145 119.293 53.2106C119.216 53.3067 119.114 53.3782 118.998 53.4163C118.881 53.4544 118.756 53.4573 118.638 53.4248C118.52 53.3922 118.415 53.3256 118.334 53.2332C118.253 53.1408 118.202 53.0267 118.185 52.905C118.169 52.7833 118.188 52.6594 118.241 52.5487C118.294 52.4379 118.378 52.3453 118.483 52.2821C118.588 52.219 118.709 52.1881 118.831 52.1935C118.999 52.2065 119.156 52.2852 119.267 52.4127C119.378 52.5403 119.435 52.7065 119.426 52.8757Z" fill="#263238"/>
<path d="M118.877 50.7145L117.51 51.3925C117.424 51.2041 117.414 50.9898 117.482 50.794C117.549 50.5983 117.69 50.4363 117.873 50.3416C117.963 50.2973 118.061 50.2717 118.161 50.2665C118.261 50.2614 118.361 50.2767 118.455 50.3116C118.549 50.3465 118.635 50.4002 118.707 50.4695C118.78 50.5387 118.838 50.6221 118.877 50.7145Z" fill="#263238"/>
<path d="M118.531 56.8844L119.928 57.4904C119.892 57.5844 119.838 57.6702 119.769 57.7427C119.699 57.8152 119.616 57.873 119.524 57.9125C119.432 57.952 119.333 57.9725 119.232 57.9728C119.132 57.9731 119.033 57.9531 118.941 57.9141C118.754 57.8278 118.608 57.6729 118.531 57.4813C118.455 57.2897 118.455 57.076 118.531 56.8844Z" fill="#F28F8F"/>
<path d="M124.279 51.3332L123.11 50.3374C123.171 50.2572 123.247 50.1903 123.334 50.1407C123.421 50.0912 123.518 50.0601 123.617 50.0494C123.717 50.0387 123.818 50.0486 123.913 50.0784C124.009 50.1083 124.097 50.1574 124.173 50.223C124.33 50.3585 124.429 50.5498 124.449 50.7568C124.468 50.9637 124.408 51.1702 124.279 51.3332Z" fill="#263238"/>
<path d="M123.908 52.6468C123.897 52.7693 123.85 52.8859 123.774 52.9821C123.697 53.0782 123.595 53.1497 123.478 53.1876C123.362 53.2255 123.236 53.2282 123.118 53.1952C123 53.1623 122.895 53.0953 122.814 53.0025C122.734 52.9097 122.682 52.7952 122.666 52.6732C122.65 52.5513 122.67 52.4273 122.724 52.3167C122.777 52.2061 122.862 52.1137 122.968 52.0511C123.073 51.9885 123.195 51.9584 123.317 51.9646C123.4 51.97 123.482 51.9919 123.557 52.0292C123.632 52.0665 123.699 52.1184 123.754 52.1818C123.809 52.2453 123.851 52.3191 123.877 52.3989C123.904 52.4787 123.914 52.563 123.908 52.6468Z" fill="#263238"/>
<path d="M121.165 51.9604L120.646 55.7233L122.933 55.5835L121.165 51.9604Z" fill="#F28F8F"/>
<path d="M106.8 135.508L71.3771 114.973L137.855 76.4493L173.273 96.9845L106.8 135.508Z" fill="#455A64"/>
<path d="M71.3771 114.973V156.043L73.2423 157.124V129.025L104.935 147.399V175.498L106.8 176.579V135.508L71.3771 114.973Z" fill="#263238"/>
<path d="M73.2423 157.124L75.1076 156.043V130.105L73.2423 129.025V157.124Z" fill="black"/>
<path d="M106.8 176.579L108.665 175.498V147.399L171.412 111.036V139.136L173.273 138.055V96.9845L106.8 135.508V176.579Z" fill="#37474F"/>
<path d="M171.412 139.136L169.547 138.055V112.117L171.412 111.036V139.136Z" fill="#263238"/>
<path d="M106.525 111.295L92.418 119.478C92.2943 119.54 92.1577 119.573 92.0192 119.573C91.8807 119.573 91.7441 119.54 91.6204 119.478L81.2308 113.456C81.1836 113.439 81.1428 113.407 81.114 113.366C81.0852 113.325 81.0697 113.275 81.0697 113.225C81.0697 113.175 81.0852 113.125 81.114 113.084C81.1428 113.043 81.1836 113.011 81.2308 112.994L95.3382 104.824C95.4612 104.761 95.5971 104.729 95.7349 104.729C95.8727 104.729 96.0086 104.761 96.1316 104.824L106.525 110.85C106.568 110.87 106.603 110.901 106.628 110.941C106.653 110.98 106.666 111.026 106.666 111.072C106.666 111.119 106.653 111.165 106.628 111.204C106.603 111.243 106.568 111.275 106.525 111.295Z" fill="#EBEBEB"/>
<path d="M96.1316 104.824L105.998 110.545L92.418 118.41C92.2943 118.472 92.1577 118.505 92.0192 118.505C91.8807 118.505 91.7441 118.472 91.6204 118.41L81.7541 112.689L95.3382 104.824C95.4612 104.761 95.5971 104.729 95.7349 104.729C95.8728 104.729 96.0087 104.761 96.1316 104.824Z" fill="#E0E0E0"/>
<path d="M106.525 109.85L92.418 118.037C92.2943 118.099 92.1577 118.132 92.0192 118.132C91.8807 118.132 91.7441 118.099 91.6204 118.037L81.2181 112.028C81.1709 112.011 81.1302 111.979 81.1014 111.938C81.0725 111.897 81.0571 111.847 81.0571 111.797C81.0571 111.746 81.0725 111.697 81.1014 111.656C81.1302 111.615 81.1709 111.583 81.2181 111.566L95.3382 103.379C95.4612 103.316 95.5971 103.284 95.7349 103.284C95.8727 103.284 96.0086 103.316 96.1316 103.379L106.525 109.405C106.569 109.423 106.606 109.454 106.632 109.494C106.658 109.533 106.672 109.58 106.672 109.627C106.672 109.675 106.658 109.721 106.632 109.761C106.606 109.8 106.569 109.831 106.525 109.85Z" fill="#FAFAFA"/>
<path d="M118.122 95.4421V95.2853C118.129 95.1469 118.169 95.0123 118.238 94.8923C118.307 94.7723 118.403 94.6703 118.519 94.5946L141.961 81.0047C142.084 80.9421 142.22 80.9095 142.357 80.9095C142.495 80.9095 142.631 80.9421 142.754 81.0047L147.552 83.7845C147.668 83.8603 147.764 83.9623 147.833 84.0823C147.902 84.2023 147.942 84.3369 147.949 84.4753V84.6363C147.942 84.7746 147.902 84.9092 147.833 85.0293C147.764 85.1493 147.668 85.2513 147.552 85.327L124.114 98.9169C123.991 98.9795 123.854 99.0121 123.716 99.0121C123.577 99.0121 123.441 98.9795 123.317 98.9169L118.519 96.1328C118.403 96.0571 118.307 95.9551 118.238 95.835C118.169 95.715 118.129 95.5804 118.122 95.4421Z" fill="#E0E0E0"/>
<path d="M118.519 95.0522L123.317 97.8363C123.44 97.8988 123.576 97.9314 123.714 97.9314C123.851 97.9314 123.987 97.8988 124.11 97.8363L147.552 84.2464C147.599 84.2292 147.64 84.1978 147.669 84.1564C147.698 84.1151 147.713 84.0659 147.713 84.0155C147.713 83.965 147.698 83.9158 147.669 83.8745C147.64 83.8332 147.599 83.8018 147.552 83.7845L142.754 81.0047C142.631 80.9421 142.495 80.9095 142.357 80.9095C142.22 80.9095 142.084 80.9421 141.961 81.0047L118.519 94.5946C118.471 94.6107 118.43 94.6415 118.4 94.6826C118.371 94.7236 118.355 94.7729 118.355 94.8234C118.355 94.8739 118.371 94.9232 118.4 94.9642C118.43 95.0053 118.471 95.036 118.519 95.0522Z" fill="#FAFAFA"/>
<path d="M140.56 84.1701C140.138 83.4879 137.897 81.4877 137.458 81.0767C137.019 80.6656 135.108 80.386 133.432 79.8605C131.9 79.1486 129.892 78.0214 127.237 76.4323L125.579 81.2292C128.064 81.9539 130.546 82.598 131.694 82.9243C132.66 83.2972 132.626 83.5853 133.415 84.0345C134.875 84.882 135.829 84.704 135.829 84.704C136.263 85.1175 136.724 85.5012 137.209 85.8524C138.247 86.5643 139.285 87.1237 140.56 86.6999C141.957 86.2423 140.973 84.8566 140.56 84.1701Z" fill="#FFA8A7"/>
<path d="M134.652 114.994C136.011 113.6 136.812 110.121 135.496 109.019H128.744C127.419 110.121 128.216 113.596 129.588 114.99L129.626 115.028C129.639 115.046 129.655 115.061 129.672 115.075C129.71 115.115 129.751 115.151 129.795 115.185L129.828 115.21C129.86 115.239 129.894 115.266 129.93 115.291L130.103 115.401C130.73 115.721 131.424 115.887 132.128 115.887C132.832 115.887 133.526 115.721 134.154 115.401C134.215 115.366 134.274 115.328 134.331 115.287L134.428 115.214L134.466 115.185L134.584 115.079L134.639 115.024L134.652 114.994Z" fill="#EBEBEB"/>
<path d="M129.326 108.574C127.786 109.464 127.786 110.913 129.326 111.803C130.19 112.244 131.145 112.474 132.113 112.474C133.082 112.474 134.037 112.244 134.901 111.803C136.437 110.913 136.437 109.464 134.901 108.574C134.037 108.134 133.082 107.904 132.113 107.904C131.145 107.904 130.19 108.134 129.326 108.574Z" fill="#FAFAFA"/>
<path d="M130.398 109.206C129.465 109.748 129.465 110.629 130.398 111.172C130.922 111.436 131.5 111.574 132.086 111.574C132.672 111.574 133.25 111.436 133.774 111.172C134.711 110.629 134.711 109.748 133.774 109.206C133.25 108.941 132.672 108.803 132.086 108.803C131.5 108.803 130.922 108.941 130.398 109.206Z" fill="#EBEBEB"/>
<path d="M133.808 110.138C133.284 109.873 132.706 109.736 132.12 109.736C131.534 109.736 130.955 109.873 130.432 110.138C130.207 110.264 130.015 110.441 129.87 110.655C130.004 110.868 130.184 111.048 130.398 111.18C130.922 111.445 131.5 111.583 132.086 111.583C132.672 111.583 133.25 111.445 133.774 111.18C134.001 111.057 134.194 110.88 134.335 110.663C134.204 110.448 134.023 110.268 133.808 110.138Z" fill="#E0E0E0"/>
<path d="M130.622 110.655C130.143 110.166 129.732 109.616 129.398 109.019C128.828 108.011 128.727 106.663 129.018 106.498C129.309 106.333 130.504 107.676 130.504 107.676C130.395 107.118 130.352 106.549 130.377 105.981C130.428 105.083 130.647 104.286 130.9 104.108C131.153 103.93 131.744 105.074 131.972 105.892C132.2 106.71 132.365 107.384 132.365 107.384C132.458 106.745 132.599 106.115 132.787 105.498C133.086 104.65 133.352 104.455 133.563 104.54C133.774 104.625 133.909 105.019 133.985 106.155C134.007 106.695 133.99 107.236 133.934 107.773C133.934 107.773 134.356 107.311 134.821 106.858C135.285 106.405 135.551 106.299 135.698 106.392C135.846 106.485 135.884 107.239 135.091 108.697C134.696 109.431 134.191 110.098 133.593 110.676C133.593 110.676 132.508 111.367 130.622 110.655Z" fill="#FFC656"/>
<path d="M125.271 121.584C125.312 121.565 125.349 121.536 125.375 121.498C125.402 121.461 125.418 121.417 125.423 121.372V121.045L109.72 112.146C109.607 112.088 109.482 112.058 109.355 112.058C109.228 112.058 109.103 112.088 108.99 112.146L94.8783 120.325L111.163 129.762L125.271 121.584Z" fill="#FFC656"/>
<path opacity="0.2" d="M125.271 121.584C125.312 121.565 125.349 121.536 125.375 121.498C125.402 121.461 125.418 121.417 125.423 121.372V121.045L109.72 112.146C109.607 112.088 109.482 112.058 109.355 112.058C109.228 112.058 109.103 112.088 108.99 112.146L94.8783 120.325L111.163 129.762L125.271 121.584Z" fill="black"/>
<path d="M125.271 121.266C125.314 121.25 125.352 121.222 125.379 121.184C125.406 121.146 125.42 121.1 125.42 121.054C125.42 121.007 125.406 120.962 125.379 120.924C125.352 120.886 125.314 120.857 125.271 120.842L109.72 111.829C109.607 111.77 109.482 111.74 109.355 111.74C109.228 111.74 109.103 111.77 108.99 111.829L94.8783 120.007L111.163 129.444L125.271 121.266Z" fill="#FFC656"/>
<path opacity="0.5" d="M125.271 121.266C125.314 121.25 125.352 121.222 125.379 121.184C125.406 121.146 125.42 121.1 125.42 121.054C125.42 121.007 125.406 120.962 125.379 120.924C125.352 120.886 125.314 120.857 125.271 120.842L109.72 111.829C109.607 111.77 109.482 111.74 109.355 111.74C109.228 111.74 109.103 111.77 108.99 111.829L94.8783 120.007L111.163 129.444L125.271 121.266Z" fill="black"/>
<path d="M98.1276 117.871L108.572 111.816C108.687 111.76 108.812 111.732 108.939 111.732C109.066 111.732 109.192 111.76 109.306 111.816L123.654 120.13L125.013 119.338V120.952H124.988C125.034 121.05 124.988 121.16 124.866 121.236L112.898 128.173L96.6127 118.736V116.973L98.1276 117.871Z" fill="#EBEBEB"/>
<path d="M124.857 119.49C124.901 119.475 124.939 119.446 124.965 119.408C124.992 119.37 125.007 119.325 125.007 119.278C125.007 119.232 124.992 119.186 124.965 119.148C124.939 119.111 124.901 119.082 124.857 119.066L109.298 110.053C109.184 109.995 109.059 109.964 108.931 109.964C108.803 109.964 108.677 109.995 108.564 110.053L96.5958 116.99L112.889 126.436L124.857 119.49Z" fill="#FAFAFA"/>
<path d="M112.889 126.423V128.19L96.6042 118.753V116.99L112.889 126.423Z" fill="#E6E6E6"/>
<path d="M112.695 125.732C112.737 125.755 112.783 125.77 112.83 125.779C112.901 125.797 112.975 125.797 113.045 125.779C113.069 125.775 113.092 125.766 113.113 125.753C113.223 125.694 113.21 125.584 113.083 125.512C113.025 125.48 112.96 125.461 112.893 125.457C112.815 125.446 112.736 125.46 112.666 125.495C112.659 125.493 112.651 125.493 112.644 125.495C112.56 125.588 112.577 125.664 112.695 125.732Z" fill="#263238"/>
<path d="M110.851 127.114C110.841 127.332 110.907 127.548 111.037 127.724C111.099 127.803 111.178 127.867 111.269 127.91C111.36 127.954 111.459 127.975 111.56 127.974C111.739 127.969 111.914 127.916 112.066 127.821L112.159 127.766L111.952 127.648C111.454 127.927 111.058 127.69 111.058 127.114C111.075 126.799 111.166 126.493 111.323 126.22C111.48 125.946 111.698 125.714 111.961 125.541C112.057 125.467 112.174 125.424 112.295 125.418C112.417 125.412 112.537 125.443 112.64 125.508C112.732 125.573 112.798 125.669 112.826 125.779C112.896 125.797 112.971 125.797 113.041 125.779C113.017 125.661 112.965 125.55 112.889 125.457C112.827 125.378 112.747 125.315 112.656 125.273C112.565 125.23 112.466 125.209 112.366 125.211C112.185 125.217 112.009 125.271 111.855 125.368C111.561 125.557 111.316 125.814 111.141 126.118C110.966 126.422 110.867 126.763 110.851 127.114Z" fill="#263238"/>
<path d="M111.378 125.448L125.423 118.554V118.808C125.418 118.871 125.399 118.933 125.368 118.988C125.336 119.043 125.293 119.09 125.241 119.126L111.378 125.787V125.448Z" fill="#FFC656"/>
<path opacity="0.2" d="M111.378 125.448L125.423 118.554V118.808C125.418 118.871 125.399 118.933 125.368 118.988C125.336 119.043 125.293 119.09 125.241 119.126L111.378 125.787V125.448Z" fill="black"/>
<path d="M125.271 118.766C125.473 118.647 125.473 118.456 125.271 118.342L109.72 109.329C109.607 109.27 109.482 109.24 109.355 109.24C109.228 109.24 109.103 109.27 108.99 109.329L94.8783 116.13L111.163 125.588L125.271 118.766Z" fill="#FFC656"/>
<path d="M111.163 129.762L94.8783 120.325V116.126L111.163 125.567V129.762Z" fill="#FFC656"/>
<path opacity="0.1" d="M111.163 129.762L94.8783 120.325V116.126L111.163 125.567V129.762Z" fill="black"/>
<path d="M107.952 127.067C108.053 127.068 108.153 127.046 108.244 127.003C108.336 126.96 108.416 126.896 108.479 126.817C108.607 126.64 108.672 126.425 108.665 126.207C108.647 125.854 108.545 125.511 108.369 125.205C108.193 124.899 107.947 124.64 107.652 124.448C107.499 124.353 107.322 124.3 107.142 124.296C106.72 124.296 106.433 124.643 106.433 125.143C106.449 125.496 106.55 125.839 106.725 126.145C106.901 126.451 107.146 126.71 107.441 126.902C107.595 126.997 107.771 127.05 107.952 127.054V127.067Z" fill="#455A64"/>
<path d="M108.454 126.207C108.454 126.787 108.032 127.02 107.547 126.732C107.284 126.559 107.065 126.326 106.908 126.052C106.751 125.778 106.661 125.471 106.644 125.156C106.644 124.58 107.066 124.342 107.547 124.635C107.81 124.807 108.029 125.04 108.186 125.313C108.344 125.586 108.435 125.892 108.454 126.207Z" fill="#F5F5F5"/>
<path d="M105.171 124.096V124.414C105.171 125.05 104.724 125.308 104.175 124.991L97.1191 120.901C96.8299 120.711 96.5891 120.456 96.4161 120.156C96.2432 119.856 96.1428 119.519 96.1231 119.172V118.855C96.1231 118.219 96.5705 117.96 97.1191 118.278L104.175 122.367C104.464 122.557 104.705 122.812 104.878 123.113C105.051 123.413 105.151 123.75 105.171 124.096Z" fill="#F5F5F5"/>
<path d="M111.383 129.639V125.461L111.163 125.567V129.762L111.383 129.639Z" fill="#FFC656"/>
<path opacity="0.2" d="M111.383 129.639V125.461L111.163 125.567V129.762L111.383 129.639Z" fill="black"/>
<path d="M95.0302 115.473C95.0351 115.524 95.0518 115.573 95.0789 115.616C95.106 115.66 95.1428 115.696 95.1863 115.723L111.159 124.974C111.208 124.999 111.262 125.012 111.317 125.012C111.372 125.012 111.426 124.999 111.476 124.974L125.786 117.706V117.384L109.505 107.947L95.1863 115.219C95.1427 115.246 95.1059 115.284 95.0789 115.328C95.0518 115.372 95.0351 115.421 95.0302 115.473Z" fill="#FFC656"/>
<path opacity="0.1" d="M111.315 124.694V125.012C111.259 125.013 111.204 125 111.155 124.974L95.1905 115.727C95.1461 115.7 95.1085 115.663 95.0807 115.619C95.0529 115.575 95.0356 115.525 95.0302 115.473C95.0353 115.421 95.0525 115.371 95.0803 115.327C95.1082 115.283 95.1459 115.246 95.1905 115.219C95.1019 115.27 95.1019 115.35 95.1905 115.401L111.155 124.656C111.203 124.684 111.259 124.697 111.315 124.694Z" fill="black"/>
<path opacity="0.5" d="M125.786 117.384L111.476 124.656C111.427 124.683 111.371 124.697 111.315 124.694C111.259 124.697 111.203 124.684 111.155 124.656L95.1905 115.418C95.1019 115.367 95.1019 115.287 95.1905 115.236L109.509 107.964L125.786 117.384Z" fill="black"/>
<path opacity="0.2" d="M125.786 117.384V117.706L111.476 124.974C111.427 125.001 111.371 125.014 111.315 125.012V124.694C111.371 124.697 111.427 124.683 111.476 124.656L125.786 117.384Z" fill="black"/>
<path d="M125.57 117.511L109.281 108.078V103.875L125.57 113.358V117.511Z" fill="#FFC656"/>
<path opacity="0.7" d="M125.57 117.511L109.281 108.078V103.875L125.57 113.358V117.511Z" fill="black"/>
<path d="M95.2285 113.21C95.1702 113.248 95.1215 113.299 95.0863 113.36C95.0511 113.42 95.0305 113.488 95.026 113.558V114.405C95.0291 114.475 95.0492 114.542 95.0845 114.602C95.1198 114.662 95.1693 114.712 95.2285 114.748L111.117 123.952C111.178 123.985 111.246 124.002 111.315 124.002C111.384 124.002 111.452 123.985 111.514 123.952L123.646 117.367V116.058L107.365 106.621L95.2285 113.21Z" fill="#EBEBEB"/>
<path d="M107.365 106.621L95.2285 113.21C95.2042 113.218 95.183 113.234 95.168 113.255C95.1531 113.276 95.145 113.301 95.145 113.327C95.145 113.352 95.1531 113.378 95.168 113.398C95.183 113.419 95.2042 113.435 95.2285 113.443L111.117 122.647C111.178 122.68 111.246 122.697 111.315 122.697C111.384 122.697 111.452 122.68 111.514 122.647L123.646 116.058L107.365 106.621Z" fill="#FAFAFA"/>
<path d="M122.101 116.164C122.144 116.186 122.189 116.202 122.237 116.21C122.307 116.229 122.381 116.229 122.452 116.21C122.476 116.206 122.499 116.198 122.519 116.185C122.629 116.126 122.616 116.015 122.49 115.943C122.431 115.912 122.366 115.893 122.3 115.888C122.222 115.878 122.142 115.891 122.072 115.926C121.958 116.003 121.983 116.096 122.101 116.164Z" fill="#263238"/>
<path d="M111.315 122.69V124.003C111.245 124.005 111.175 123.989 111.113 123.957L95.2243 114.757C95.1677 114.718 95.1208 114.666 95.0872 114.606C95.0536 114.545 95.0341 114.478 95.0302 114.409V113.562C95.0367 113.443 95.0898 113.332 95.1779 113.253C95.1188 113.312 95.1357 113.392 95.2243 113.447L111.113 122.647C111.175 122.681 111.245 122.696 111.315 122.69Z" fill="#E6E6E6"/>
<path d="M124.224 114.346C124.096 114.278 123.951 114.246 123.806 114.254C123.661 114.262 123.521 114.31 123.401 114.392C122.837 114.793 122.438 115.387 122.279 116.062L122.549 116.104C122.694 115.51 123.044 114.986 123.536 114.625C123.64 114.564 123.757 114.527 123.878 114.52C123.951 114.519 124.023 114.539 124.085 114.579C124.213 114.693 124.31 114.838 124.367 115.001C124.424 115.163 124.439 115.337 124.41 115.507C124.385 116.38 123.891 117.363 123.304 117.702C123.179 117.782 123.03 117.818 122.882 117.804L122.587 117.973C122.692 118.035 122.811 118.068 122.933 118.066C123.102 118.062 123.267 118.012 123.41 117.922C124.076 117.537 124.621 116.473 124.65 115.503C124.683 115.289 124.661 115.071 124.586 114.869C124.512 114.666 124.387 114.486 124.224 114.346Z" fill="#263238"/>
<path d="M95.0302 112.803C95.0351 112.855 95.0518 112.905 95.0789 112.949C95.1059 112.993 95.1427 113.03 95.1863 113.058L111.159 122.308C111.208 122.333 111.262 122.346 111.317 122.346C111.372 122.346 111.426 122.333 111.476 122.308L125.786 113.524V113.206L109.505 103.765L95.1863 112.553C95.1428 112.58 95.106 112.616 95.0789 112.66C95.0518 112.703 95.0351 112.752 95.0302 112.803Z" fill="#FFC656"/>
<path opacity="0.1" d="M111.315 122.024V122.342C111.26 122.342 111.205 122.331 111.155 122.308L95.1905 113.058C95.1421 113.035 95.101 112.999 95.0722 112.954C95.0434 112.909 95.028 112.857 95.028 112.803C95.028 112.75 95.0434 112.697 95.0722 112.652C95.101 112.607 95.1421 112.571 95.1905 112.549C95.1706 112.555 95.1532 112.568 95.1408 112.584C95.1285 112.601 95.1218 112.621 95.1218 112.642C95.1218 112.663 95.1285 112.684 95.1408 112.7C95.1532 112.717 95.1706 112.729 95.1905 112.736L111.155 121.99C111.205 122.015 111.26 122.027 111.315 122.024Z" fill="black"/>
<path d="M125.786 113.206L111.476 121.99C111.426 122.015 111.371 122.026 111.315 122.024C111.26 122.027 111.205 122.015 111.155 121.99L95.1905 112.736C95.1707 112.729 95.1532 112.717 95.1408 112.7C95.1285 112.683 95.1218 112.663 95.1218 112.642C95.1218 112.621 95.1285 112.601 95.1408 112.584C95.1532 112.567 95.1707 112.555 95.1905 112.549L109.509 103.765L125.786 113.206Z" fill="#FFC656"/>
<path opacity="0.2" d="M125.786 113.206V113.524L111.476 122.308C111.426 122.332 111.371 122.344 111.315 122.342V122.024C111.371 122.026 111.426 122.015 111.476 121.99L125.786 113.206Z" fill="black"/>
<path d="M125.786 117.384V113.21L125.57 113.358V117.511L125.786 117.384Z" fill="#FFC656"/>
<path opacity="0.2" d="M125.786 117.384V113.21L125.57 113.358V117.511L125.786 117.384Z" fill="black"/>
<path d="M125.271 113.142C125.312 113.124 125.349 113.094 125.375 113.057C125.402 113.02 125.418 112.976 125.423 112.93V112.604L109.72 103.705C109.606 103.65 109.481 103.622 109.355 103.622C109.229 103.622 109.104 103.65 108.99 103.705L94.8783 111.888L111.163 121.325L125.271 113.142Z" fill="#FFC656"/>
<path opacity="0.2" d="M125.271 113.142C125.312 113.124 125.349 113.094 125.375 113.057C125.402 113.02 125.418 112.976 125.423 112.93V112.604L109.72 103.705C109.606 103.65 109.481 103.622 109.355 103.622C109.229 103.622 109.104 103.65 108.99 103.705L94.8783 111.888L111.163 121.325L125.271 113.142Z" fill="black"/>
<path d="M125.271 112.825C125.473 112.706 125.473 112.515 125.271 112.401L109.72 103.383C109.606 103.328 109.481 103.3 109.355 103.3C109.229 103.3 109.104 103.328 108.99 103.383L94.8783 111.566L111.163 121.003L125.271 112.825Z" fill="#FFC656"/>
<path opacity="0.5" d="M125.271 112.825C125.473 112.706 125.473 112.515 125.271 112.401L109.72 103.383C109.606 103.328 109.481 103.3 109.355 103.3C109.229 103.3 109.104 103.328 108.99 103.383L94.8783 111.566L111.163 121.003L125.271 112.825Z" fill="black"/>
<path d="M98.1277 109.43L108.572 103.375C108.686 103.316 108.812 103.286 108.939 103.286C109.067 103.286 109.193 103.316 109.306 103.375L123.654 111.689L125.013 110.892V112.511H124.988C124.999 112.538 125.004 112.567 125.004 112.596C125.004 112.625 124.998 112.654 124.987 112.681C124.975 112.707 124.959 112.732 124.938 112.752C124.917 112.772 124.893 112.788 124.866 112.799L112.898 119.732L96.6042 110.333V108.566L98.1277 109.43Z" fill="#EBEBEB"/>
<path d="M124.857 111.049C124.901 111.034 124.939 111.005 124.965 110.967C124.992 110.929 125.007 110.884 125.007 110.837C125.007 110.791 124.992 110.745 124.965 110.707C124.939 110.669 124.901 110.641 124.857 110.625L109.298 101.608C109.184 101.552 109.058 101.523 108.931 101.523C108.804 101.523 108.678 101.552 108.564 101.608L96.5958 108.545L112.881 117.982L124.857 111.049Z" fill="#FAFAFA"/>
<path d="M112.889 117.982V119.744L96.6042 110.312V108.545L112.889 117.982Z" fill="#E6E6E6"/>
<path d="M112.695 117.291C112.737 117.313 112.783 117.329 112.83 117.338C112.901 117.356 112.975 117.356 113.045 117.338C113.069 117.334 113.092 117.325 113.113 117.312C113.223 117.253 113.21 117.143 113.083 117.071C113.025 117.039 112.96 117.02 112.893 117.015C112.815 117.005 112.736 117.018 112.666 117.054C112.659 117.052 112.651 117.052 112.644 117.054C112.56 117.113 112.577 117.223 112.695 117.291Z" fill="#263238"/>
<path d="M110.851 118.672C110.841 118.891 110.907 119.107 111.037 119.283C111.099 119.362 111.178 119.426 111.269 119.469C111.36 119.512 111.459 119.534 111.56 119.533C111.739 119.528 111.914 119.475 112.066 119.38L112.159 119.325L111.952 119.206C111.454 119.486 111.058 119.249 111.058 118.672C111.075 118.358 111.166 118.051 111.323 117.778C111.48 117.505 111.698 117.273 111.961 117.1C112.057 117.026 112.174 116.983 112.295 116.977C112.417 116.971 112.537 117.002 112.64 117.066C112.732 117.132 112.798 117.228 112.826 117.337C112.896 117.356 112.971 117.356 113.041 117.337C113.017 117.22 112.965 117.109 112.889 117.015C112.827 116.937 112.747 116.874 112.656 116.831C112.565 116.789 112.466 116.768 112.366 116.77C112.185 116.774 112.009 116.827 111.855 116.922C111.561 117.112 111.316 117.37 111.142 117.675C110.967 117.979 110.867 118.321 110.851 118.672Z" fill="#263238"/>
<path d="M111.378 117.003L125.423 110.112V110.333C125.418 110.396 125.399 110.457 125.368 110.512C125.336 110.567 125.293 110.615 125.241 110.651L111.378 117.325V117.003Z" fill="#FFC656"/>
<path opacity="0.2" d="M111.378 117.003L125.423 110.112V110.333C125.418 110.396 125.399 110.457 125.368 110.512C125.336 110.567 125.293 110.615 125.241 110.651L111.378 117.325V117.003Z" fill="black"/>
<path d="M125.271 110.333C125.473 110.218 125.473 110.028 125.271 109.909L109.72 100.883C109.606 100.828 109.481 100.8 109.355 100.8C109.229 100.8 109.104 100.828 108.99 100.883L94.8783 107.689L111.163 117.113L125.271 110.333Z" fill="#FFC656"/>
<path d="M111.163 121.321L94.8783 111.884V107.68L111.163 117.126V121.321Z" fill="#FFC656"/>
<path opacity="0.1" d="M111.163 121.321L94.8783 111.884V107.68L111.163 117.126V121.321Z" fill="black"/>
<path d="M107.952 118.626C108.053 118.627 108.153 118.605 108.244 118.562C108.336 118.518 108.416 118.455 108.479 118.376C108.607 118.199 108.672 117.984 108.665 117.766C108.647 117.413 108.545 117.07 108.369 116.764C108.193 116.458 107.947 116.199 107.652 116.007C107.499 115.911 107.322 115.859 107.142 115.854C106.72 115.854 106.433 116.202 106.433 116.702C106.449 117.054 106.55 117.398 106.725 117.704C106.901 118.009 107.146 118.269 107.441 118.46C107.595 118.556 107.771 118.608 107.952 118.613V118.626Z" fill="#455A64"/>
<path d="M108.454 117.766C108.454 118.342 108.032 118.579 107.547 118.287C107.284 118.115 107.065 117.882 106.908 117.609C106.751 117.336 106.66 117.03 106.644 116.715C106.644 116.134 107.066 115.901 107.547 116.189C107.809 116.363 108.028 116.596 108.186 116.87C108.343 117.143 108.435 117.45 108.454 117.766Z" fill="#F5F5F5"/>
<path d="M105.171 115.655V115.973C105.171 116.609 104.724 116.867 104.175 116.549L97.1191 112.452C96.8292 112.263 96.5879 112.007 96.4148 111.707C96.2418 111.407 96.1418 111.069 96.1231 110.723V110.405C96.1231 109.769 96.5705 109.511 97.1191 109.833L104.175 113.922C104.465 114.112 104.706 114.368 104.879 114.669C105.052 114.97 105.152 115.308 105.171 115.655Z" fill="#F5F5F5"/>
<path d="M111.383 121.194V117.015L111.163 117.126V121.321L111.383 121.194Z" fill="#FFC656"/>
<path opacity="0.2" d="M111.383 121.194V117.015L111.163 117.126V121.321L111.383 121.194Z" fill="black"/>
<path d="M95.0302 106.778C95.0351 106.829 95.0518 106.879 95.0789 106.923C95.1059 106.967 95.1427 107.004 95.1863 107.032L111.159 116.265C111.208 116.29 111.262 116.303 111.317 116.303C111.372 116.303 111.426 116.29 111.476 116.265L125.786 108.998V108.676L109.505 99.2389L95.1863 106.519C95.1422 106.547 95.1051 106.585 95.078 106.63C95.0509 106.675 95.0345 106.725 95.0302 106.778Z" fill="#FFC656"/>
<path opacity="0.1" d="M111.315 116.003V116.32C111.26 116.319 111.205 116.306 111.155 116.282L95.1906 107.032C95.1432 107.009 95.1033 106.973 95.0753 106.929C95.0474 106.884 95.0326 106.832 95.0326 106.78C95.0326 106.727 95.0474 106.675 95.0753 106.631C95.1033 106.586 95.1432 106.55 95.1906 106.527C95.1019 106.578 95.1019 106.659 95.1906 106.71L111.155 115.965C111.204 115.991 111.259 116.004 111.315 116.003Z" fill="black"/>
<path opacity="0.5" d="M125.786 108.693L111.476 115.965C111.426 115.99 111.371 116.003 111.315 116.003C111.259 116.004 111.204 115.991 111.155 115.965L95.1905 106.71C95.1019 106.659 95.1019 106.578 95.1905 106.528L109.509 99.2559L125.786 108.693Z" fill="black"/>
<path opacity="0.2" d="M125.786 108.693V109.015L111.476 116.265C111.427 116.293 111.371 116.306 111.315 116.304V115.986C111.371 115.986 111.426 115.973 111.476 115.948L125.786 108.693Z" fill="black"/>
<path d="M125.57 108.82L109.281 99.3872V95.1835L125.57 104.667V108.82Z" fill="#FFC656"/>
<path opacity="0.7" d="M125.57 108.82L109.281 99.3872V95.1835L125.57 104.667V108.82Z" fill="black"/>
<path d="M95.2285 104.519C95.1702 104.557 95.1215 104.608 95.0863 104.669C95.0511 104.729 95.0305 104.797 95.026 104.866V105.714C95.0305 105.784 95.0511 105.851 95.0863 105.912C95.1215 105.972 95.1702 106.023 95.2285 106.061L111.117 115.265C111.178 115.298 111.246 115.315 111.315 115.315C111.384 115.315 111.452 115.298 111.514 115.265L123.646 108.676V107.367L107.365 97.9252L95.2285 104.519Z" fill="#EBEBEB"/>
<path d="M107.365 97.9252L95.2285 104.519C95.2036 104.526 95.1815 104.541 95.1659 104.561C95.1502 104.582 95.1417 104.607 95.1417 104.633C95.1417 104.659 95.1502 104.685 95.1659 104.705C95.1815 104.726 95.2036 104.741 95.2285 104.748L111.117 113.956C111.178 113.989 111.246 114.006 111.315 114.006C111.384 114.006 111.452 113.989 111.514 113.956L123.646 107.367L107.365 97.9252Z" fill="#FAFAFA"/>
<path d="M122.101 107.472C122.144 107.495 122.189 107.511 122.237 107.519C122.307 107.538 122.381 107.538 122.452 107.519C122.476 107.515 122.499 107.506 122.519 107.494C122.629 107.434 122.616 107.324 122.49 107.252C122.431 107.221 122.366 107.202 122.3 107.197C122.222 107.187 122.142 107.2 122.072 107.235C121.958 107.311 121.983 107.405 122.101 107.472Z" fill="#263238"/>
<path d="M111.315 113.998V115.312C111.245 115.314 111.175 115.298 111.113 115.265L95.2243 106.061C95.1666 106.024 95.1188 105.974 95.085 105.914C95.0512 105.854 95.0324 105.787 95.0302 105.718V104.871C95.032 104.812 95.046 104.753 95.0715 104.7C95.0969 104.647 95.1331 104.6 95.1779 104.561C95.1188 104.621 95.1357 104.697 95.2243 104.752L111.113 113.956C111.175 113.99 111.245 114.004 111.315 113.998Z" fill="#E6E6E6"/>
<path d="M124.224 105.672C124.095 105.604 123.951 105.573 123.806 105.582C123.661 105.591 123.521 105.639 123.401 105.722C122.837 106.123 122.438 106.717 122.279 107.392L122.549 107.434C122.693 106.839 123.043 106.315 123.536 105.955C123.64 105.892 123.757 105.855 123.878 105.849C123.951 105.85 124.022 105.869 124.085 105.905C124.213 106.02 124.31 106.166 124.367 106.329C124.424 106.492 124.439 106.667 124.41 106.837C124.385 107.71 123.891 108.693 123.304 109.032C123.179 109.112 123.03 109.148 122.882 109.134L122.587 109.303C122.692 109.363 122.811 109.396 122.933 109.396C123.102 109.392 123.267 109.342 123.41 109.252C124.076 108.867 124.621 107.803 124.65 106.833C124.684 106.619 124.662 106.4 124.587 106.196C124.513 105.993 124.388 105.813 124.224 105.672Z" fill="#263238"/>
<path d="M95.0302 104.112C95.0351 104.163 95.0518 104.212 95.0789 104.256C95.106 104.299 95.1428 104.335 95.1863 104.362L111.159 113.613C111.208 113.638 111.262 113.651 111.317 113.651C111.372 113.651 111.426 113.638 111.476 113.613L125.786 104.824V104.502L109.505 95.0776L95.1863 103.862C95.1432 103.889 95.1068 103.926 95.0797 103.969C95.0527 104.012 95.0358 104.061 95.0302 104.112Z" fill="#FFC656"/>
<path opacity="0.1" d="M111.315 113.333V113.651C111.259 113.652 111.204 113.639 111.155 113.613L95.1905 104.366C95.1461 104.339 95.1085 104.302 95.0807 104.258C95.0529 104.214 95.0356 104.164 95.0302 104.112C95.0353 104.06 95.0525 104.01 95.0803 103.966C95.1082 103.922 95.1459 103.885 95.1905 103.858C95.1019 103.909 95.1019 103.993 95.1905 104.04L111.155 113.299C111.204 113.326 111.26 113.337 111.315 113.333Z" fill="black"/>
<path d="M125.786 104.51L111.476 113.299C111.427 113.327 111.371 113.34 111.315 113.337C111.259 113.34 111.203 113.327 111.155 113.299L95.1905 104.044C95.1019 103.998 95.1019 103.913 95.1905 103.862L109.509 95.0776L125.786 104.51Z" fill="#FFC656"/>
<path opacity="0.2" d="M125.786 104.51V104.824L111.476 113.604C111.427 113.632 111.371 113.645 111.315 113.642V113.325C111.371 113.327 111.427 113.314 111.476 113.286L125.786 104.51Z" fill="black"/>
<path d="M125.786 108.693V104.519L125.57 104.667V108.82L125.786 108.693Z" fill="#FFC656"/>
<path opacity="0.2" d="M125.786 108.693V104.519L125.57 104.667V108.82L125.786 108.693Z" fill="black"/>
<path d="M125.271 104.447C125.312 104.429 125.349 104.401 125.375 104.364C125.402 104.328 125.418 104.284 125.423 104.239V103.913L109.72 95.014C109.606 94.9592 109.481 94.9307 109.355 94.9307C109.229 94.9307 109.104 94.9592 108.99 95.014L94.8783 103.197L111.163 112.63L125.271 104.447Z" fill="#FFC656"/>
<path opacity="0.2" d="M125.271 104.447C125.312 104.429 125.349 104.401 125.375 104.364C125.402 104.328 125.418 104.284 125.423 104.239V103.913L109.72 95.014C109.606 94.9592 109.481 94.9307 109.355 94.9307C109.229 94.9307 109.104 94.9592 108.99 95.014L94.8783 103.197L111.163 112.63L125.271 104.447Z" fill="black"/>
<path d="M125.271 104.129C125.473 104.015 125.473 103.824 125.271 103.705L109.72 94.6919C109.606 94.6371 109.481 94.6086 109.355 94.6086C109.229 94.6086 109.104 94.6371 108.99 94.6919L94.8783 102.875L111.163 112.308L125.271 104.129Z" fill="#FFC656"/>
<path opacity="0.5" d="M125.271 104.129C125.473 104.015 125.473 103.824 125.271 103.705L109.72 94.6919C109.606 94.6371 109.481 94.6086 109.355 94.6086C109.229 94.6086 109.104 94.6371 108.99 94.6919L94.8783 102.875L111.163 112.308L125.271 104.129Z" fill="black"/>
<path d="M98.1277 100.735L108.572 94.6835C108.686 94.6251 108.812 94.5947 108.939 94.5947C109.067 94.5947 109.193 94.6251 109.306 94.6835L123.654 102.998L125.013 102.201V103.82H124.988C125.034 103.921 124.988 104.027 124.866 104.108L112.889 111.053L96.6042 101.62V99.8533L98.1277 100.735Z" fill="#EBEBEB"/>
<path d="M124.857 102.354C124.901 102.338 124.939 102.309 124.965 102.271C124.992 102.234 125.007 102.188 125.007 102.142C125.007 102.095 124.992 102.05 124.965 102.012C124.939 101.974 124.901 101.945 124.857 101.93L109.298 92.9165C109.184 92.8581 109.059 92.8276 108.931 92.8276C108.803 92.8276 108.677 92.8581 108.564 92.9165L96.5958 99.8534L112.881 109.29L124.857 102.354Z" fill="#FAFAFA"/>
<path d="M112.889 109.29V111.053L96.6042 101.62V99.8533L112.889 109.29Z" fill="#E6E6E6"/>
<path d="M112.695 108.6C112.737 108.622 112.783 108.638 112.83 108.646C112.901 108.665 112.975 108.665 113.045 108.646C113.063 108.646 113.08 108.643 113.096 108.638C113.206 108.578 113.193 108.468 113.066 108.396C113.008 108.365 112.943 108.346 112.877 108.341C112.799 108.331 112.719 108.344 112.649 108.379C112.642 108.377 112.634 108.377 112.628 108.379C112.56 108.439 112.577 108.532 112.695 108.6Z" fill="#263238"/>
<path d="M110.851 109.981C110.841 110.2 110.907 110.415 111.037 110.591C111.099 110.671 111.178 110.734 111.269 110.778C111.36 110.821 111.459 110.843 111.56 110.841C111.739 110.836 111.914 110.784 112.066 110.689L112.159 110.634L111.952 110.515C111.454 110.795 111.058 110.557 111.058 109.981C111.075 109.666 111.166 109.36 111.323 109.087C111.48 108.814 111.698 108.582 111.961 108.409C112.057 108.335 112.174 108.292 112.295 108.286C112.417 108.28 112.537 108.311 112.64 108.375C112.732 108.441 112.798 108.537 112.826 108.646C112.896 108.665 112.971 108.665 113.041 108.646C113.017 108.528 112.965 108.418 112.889 108.324C112.827 108.246 112.747 108.183 112.656 108.14C112.565 108.098 112.466 108.076 112.366 108.078C112.185 108.083 112.009 108.136 111.855 108.231C111.561 108.421 111.316 108.679 111.142 108.984C110.967 109.288 110.867 109.63 110.851 109.981Z" fill="#263238"/>
<path d="M111.378 108.311L125.423 101.434V101.663C125.418 101.726 125.399 101.787 125.368 101.842C125.336 101.897 125.293 101.945 125.241 101.981L111.378 108.638V108.311Z" fill="#FFC656"/>
<path opacity="0.2" d="M111.378 108.311L125.423 101.434V101.663C125.418 101.726 125.399 101.787 125.368 101.842C125.336 101.897 125.293 101.945 125.241 101.981L111.378 108.638V108.311Z" fill="black"/>
<path d="M125.271 101.629C125.473 101.514 125.473 101.324 125.271 101.205L109.72 92.1918C109.607 92.1335 109.482 92.103 109.355 92.103C109.228 92.103 109.103 92.1335 108.99 92.1918L94.8783 98.9931L111.163 108.43L125.271 101.629Z" fill="#FFC656"/>
<path d="M111.163 112.625L94.8783 103.193V98.9889L111.163 108.43V112.625Z" fill="#FFC656"/>
<path opacity="0.1" d="M111.163 112.625L94.8783 103.193V98.9889L111.163 108.43V112.625Z" fill="black"/>
<path d="M107.952 109.93C108.053 109.931 108.153 109.91 108.244 109.866C108.336 109.823 108.416 109.759 108.479 109.68C108.607 109.503 108.673 109.289 108.665 109.07C108.647 108.718 108.546 108.375 108.37 108.07C108.194 107.765 107.948 107.506 107.652 107.316C107.499 107.22 107.322 107.167 107.142 107.163C106.72 107.163 106.433 107.506 106.433 108.011C106.449 108.363 106.549 108.706 106.724 109.011C106.9 109.316 107.146 109.575 107.441 109.765C107.595 109.86 107.771 109.913 107.952 109.918V109.93Z" fill="#455A64"/>
<path d="M108.454 109.062C108.454 109.642 108.032 109.875 107.547 109.587C107.284 109.415 107.065 109.183 106.908 108.91C106.751 108.636 106.66 108.33 106.644 108.015C106.644 107.434 107.066 107.201 107.547 107.489C107.809 107.662 108.028 107.895 108.186 108.168C108.343 108.441 108.435 108.747 108.454 109.062Z" fill="#F5F5F5"/>
<path d="M105.171 106.964V107.282C105.171 107.917 104.724 108.176 104.175 107.858L97.1191 103.765C96.8297 103.575 96.5887 103.32 96.4157 103.019C96.2427 102.719 96.1425 102.382 96.1231 102.036V101.718C96.1231 101.082 96.5705 100.824 97.1191 101.142L104.175 105.248C104.463 105.436 104.703 105.689 104.876 105.987C105.049 106.285 105.15 106.62 105.171 106.964Z" fill="#F5F5F5"/>
<path d="M111.383 112.502V108.324L111.163 108.43V112.625L111.383 112.502Z" fill="#FFC656"/>
<path opacity="0.2" d="M111.383 112.502V108.324L111.163 108.43V112.625L111.383 112.502Z" fill="black"/>
<path d="M117.548 91.5732C115.016 90.8358 105.994 88.2975 103.251 87.4076C101.339 86.7847 100.297 86.344 100.259 84.6871C100.208 83.1446 102.487 70.5124 103.31 67.3978C104.036 64.6688 106.897 62.6052 109.353 62.4484C110.176 65.1774 110.585 71.3473 108.424 73.2626C107.623 76.4705 106.686 82.3056 106.686 82.3056C106.686 82.3056 111.307 84.7168 114.974 86.4923C116.805 87.378 119.257 88.1873 120.717 88.3399C121.878 88.4628 123.958 89.0094 124.401 89.4205C125.47 90.5101 126.465 91.6695 127.381 92.891C127.803 93.5733 128.778 94.959 127.381 95.4039C126.115 95.8065 125.068 95.2598 124.03 94.5564C123.544 94.2046 123.082 93.821 122.646 93.408C121.612 93.5212 120.568 93.3142 119.654 92.8148C118.865 92.3529 117.548 91.5732 117.548 91.5732Z" fill="#FFA8A7"/>
<path d="M163.559 93.1368L165.247 72.7329C165.264 72.4013 165.195 72.0708 165.047 71.7738C164.899 71.4768 164.677 71.2232 164.403 71.0379C164.102 70.8899 163.771 70.8158 163.437 70.8217C163.102 70.8276 162.774 70.9133 162.478 71.0718L140.231 83.9709C139.937 84.1632 139.687 84.4168 139.499 84.7144C139.312 85.0119 139.19 85.3466 139.142 85.6956L137.454 106.095C137.436 106.427 137.505 106.758 137.653 107.055C137.801 107.352 138.023 107.605 138.298 107.79C138.6 107.936 138.932 108.008 139.267 108.001C139.602 107.995 139.93 107.909 140.226 107.752L162.47 94.8572C162.764 94.6656 163.013 94.4128 163.201 94.1159C163.389 93.8191 163.511 93.4852 163.559 93.1368Z" fill="#E0E0E0"/>
<path d="M163.559 93.1368L165.247 72.7329C165.264 72.4013 165.195 72.0708 165.047 71.7738C164.899 71.4768 164.677 71.2232 164.403 71.0379C164.102 70.8899 163.771 70.8158 163.437 70.8217C163.102 70.8276 162.774 70.9133 162.478 71.0718L140.231 83.9709C139.935 84.1548 139.686 84.4059 139.505 84.704L142.965 86.7084V106.163L162.47 94.8572C162.764 94.6656 163.013 94.4128 163.201 94.1159C163.389 93.8191 163.511 93.4852 163.559 93.1368Z" fill="#FAFAFA"/>
<path d="M139.323 107.184L141.011 86.7847C141.058 86.4359 141.18 86.1014 141.367 85.8038C141.554 85.5062 141.802 85.2525 142.096 85.06L164.344 72.1608C164.892 71.843 165.297 72.1015 165.247 72.7329L163.559 93.1368C163.511 93.4848 163.39 93.8185 163.203 94.1153C163.016 94.4121 162.767 94.6651 162.474 94.8572L140.226 107.756C139.682 108.074 139.26 107.82 139.323 107.184Z" fill="#F0F0F0"/>
<path d="M150.806 90.8146C150.869 90.2673 151.046 89.7396 151.327 89.2663C151.608 88.793 151.986 88.3848 152.435 88.0687C153.249 87.5941 153.84 88.0687 153.756 89.1027C153.693 89.6507 153.516 90.1792 153.235 90.6533C152.954 91.1274 152.577 91.5362 152.127 91.8528C151.312 92.3232 150.722 91.8613 150.806 90.8146Z" fill="#FFC656"/>
<path d="M150.418 97.5269L157.874 93.2003L156.942 92.6622L149.489 96.9845L150.418 97.5269Z" fill="#FAFAFA"/>
<path d="M159.339 103.159L152.68 107.019C152.551 107.09 152.405 107.124 152.258 107.117C152.131 107.113 152.007 107.081 151.895 107.023L148.941 105.328C148.827 105.254 148.734 105.153 148.668 105.034C148.602 104.915 148.565 104.782 148.561 104.646V104.489C148.561 104.235 148.734 104.129 148.958 104.256L150.726 105.282L151.122 105.51L151.034 105.061L149.498 97.0099L150.426 97.5524L157.883 93.23L159.659 102.502C159.672 102.63 159.649 102.76 159.592 102.876C159.535 102.992 159.448 103.09 159.339 103.159Z" fill="#F5F5F5"/>
<path d="M148.675 104.21L150.945 102.892L151.409 105.96L148.675 104.21Z" fill="#E0E0E0"/>
<path d="M150.418 97.5269L149.489 96.9845L151.025 105.036C151.076 105.282 150.937 105.383 150.717 105.256L148.966 104.239C148.742 104.112 148.569 104.218 148.569 104.472V104.629C148.573 104.765 148.61 104.898 148.676 105.017C148.742 105.136 148.836 105.237 148.949 105.311L151.903 107.006C152.016 107.064 152.14 107.096 152.266 107.1L150.418 97.5269Z" fill="#EBEBEB"/>
<path d="M120.215 65.957C119.793 66.8257 119.067 67.1478 117.801 67.2071C117.172 67.2082 116.548 67.082 115.968 66.8359C115.388 66.5898 114.863 66.2289 114.425 65.7748L116.05 64.3128L117.936 65.9358L118.211 64.2789L120.215 65.957Z" fill="#FFC656"/>
<path opacity="0.1" d="M120.215 65.957C119.793 66.8257 119.067 67.1478 117.801 67.2071C117.172 67.2082 116.548 67.082 115.968 66.8359C115.388 66.5898 114.863 66.2289 114.425 65.7748L116.05 64.3128L117.936 65.9358L118.211 64.2789L120.215 65.957Z" fill="black"/>
<path d="M119.261 65.4146C119.409 65.967 119.443 66.5436 119.363 67.1096C119.27 67.6134 119.048 68.084 118.717 68.4741C118.51 68.5878 118.28 68.6523 118.044 68.6626C117.809 68.6728 117.574 68.6287 117.358 68.5335C116.976 68.1617 116.679 67.7112 116.488 67.213C116.296 66.7147 116.214 66.1807 116.248 65.6477L117.936 65.9528L119.261 65.4146Z" fill="#FFC656"/>
<path d="M118.717 68.4572C118.717 68.4572 120.034 79.8478 120.059 80.7462C120.084 81.6445 118.628 84.81 117.852 84.7888C117.075 84.7676 115.742 81.7462 115.771 80.9199C115.801 80.0936 117.358 68.5038 117.358 68.5038L118.717 68.4572Z" fill="#FFC656"/>
<path opacity="0.1" d="M117.358 68.5165C117.57 68.6278 117.807 68.681 118.046 68.6706C118.284 68.6601 118.516 68.5865 118.717 68.4572V68.6352C118.514 68.7801 118.279 68.8732 118.032 68.9064C117.784 68.9396 117.533 68.912 117.299 68.8259L117.358 68.5165Z" fill="black"/>
<path d="M117.953 65.9358L112.412 61.1771L112.45 59.7236C112.45 59.7236 111.661 59.8719 110.699 62.2237C111.493 64.4547 112.97 66.3758 114.919 67.7114L116.257 65.635L117.953 65.9358Z" fill="#E0E0E0"/>
<path d="M118.637 60.6559C118.637 60.6559 119.409 60.8678 120.008 62.1009C120.494 63.101 120.553 66.741 120.553 66.741L119.261 65.4147L117.953 65.9486C118.152 64.7494 118.523 62.5585 118.523 62.5585L118.637 60.6559Z" fill="#E0E0E0"/>
<path d="M109.353 62.4483C109.353 62.4483 106.665 62.2407 104.859 63.9357C103.052 65.6308 102.749 67.0842 102.01 71.3557C101.272 75.6272 100.782 79.2672 100.782 79.2672C100.782 79.2672 103.795 81.4072 107.492 80.5936L108.758 73.4618C109.448 72.0984 109.973 70.6573 110.323 69.1691C110.88 66.2622 110.243 63.3933 109.353 62.4483Z" fill="#E0E0E0"/>
</svg>
