<svg xmlns="http://www.w3.org/2000/svg" viewBox="0 0 500 500"><g id="freepik--background-simple--inject-316"><path d="M411.38,133.25l-2.15-3.49c-17.36-28.25-48.4-45.66-81.54-44.54A90.9,90.9,0,0,0,312,87.12c-30.95,6.54-57.88,29.65-69,59.26-6.56,17.41-8.39,37.45-20.85,51.27-16.22,18-43.75,18.55-67.95,17.8s-51.75-.11-67.89,18c-10.1,11.31-13.32,27.39-12.5,42.53C76,316,104.24,351.87,140.22,369.69s78.34,19.41,117.72,11.58c55.16-11,107.62-41.14,139.16-87.72S436.61,183.52,411.38,133.25Z" style="fill:#ebebeb"></path></g><g id="freepik--Hourglass--inject-316"><path d="M156.18,110.24c-16.05,25.24-15,60.24,2.54,84.47,11.69,16.16,29.22,27,43.14,41.26s24.5,35.31,17.15,53.85c-7.48,18.87-29.39,26.54-45.79,38.5a86.54,86.54,0,0,0-20.88,118.22H322.76S352.7,389.49,314.21,346s-59.16-44.19-57.74-72.71,21.38-37.77,32.79-48.47,67-35.63,34.21-114.59Z" style="fill:#fafafa"></path><path d="M156.18,110.24l2.93,0,8.64,0,33.26,0,122.46-.09h.13l0,.12A157,157,0,0,1,330,128.62a106.73,106.73,0,0,1,3.62,20,79.23,79.23,0,0,1-1.08,21.17,68.07,68.07,0,0,1-7.7,20.58,73.76,73.76,0,0,1-6.42,9.31,85.07,85.07,0,0,1-7.85,8.4,113.75,113.75,0,0,1-8.91,7.55c-3.1,2.4-6.34,4.66-9.5,7.06-1.58,1.19-3,2.53-4.54,3.87s-3.07,2.59-4.65,3.85c-3.15,2.52-6.33,5-9.33,7.79a49.9,49.9,0,0,0-14,20.08A49,49,0,0,0,257,270.6c-.09,1-.23,2.1-.27,3.16s-.08,2.12,0,3.18a35.49,35.49,0,0,0,.64,6.34A28.93,28.93,0,0,0,262.43,295a64.34,64.34,0,0,0,8.83,9.57c6.47,5.91,13.34,11.56,19.91,17.66s13,12.46,19.2,19.19a113.78,113.78,0,0,1,8.86,10.54,73.42,73.42,0,0,1,7.15,11.91,78.34,78.34,0,0,1,7.34,27,99.09,99.09,0,0,1-1.66,28.4,116.68,116.68,0,0,1-3.66,13.94A102.51,102.51,0,0,1,323,446.66l-.07.14H152.2l-.07-.11a87.85,87.85,0,0,1-14.27-40.23,84.82,84.82,0,0,1,5.9-40.6,88.4,88.4,0,0,1,22.52-32.18,102.56,102.56,0,0,1,15.38-11.22c5.32-3.3,10.69-6.36,15.76-9.7a72.44,72.44,0,0,0,13.88-11.28,38.06,38.06,0,0,0,8.58-14.88,37.1,37.1,0,0,0,.68-16.61,54.37,54.37,0,0,0-5.27-15.27,74.52,74.52,0,0,0-8.58-13,102.7,102.7,0,0,0-10.38-10.83c-7.21-6.64-14.6-12.45-21.24-18.42-3.33-3-6.48-6-9.39-9.07a85.75,85.75,0,0,1-7.78-9.59,73.48,73.48,0,0,1-9.75-20.21,75.81,75.81,0,0,1-3.32-19.15c-.14-1.48-.08-2.94-.08-4.37s0-2.82.13-4.17.2-2.67.3-4,.37-2.52.54-3.73A71.18,71.18,0,0,1,152.42,117a26.78,26.78,0,0,1,1.54-3l1.23-2.09c.65-1.11,1-1.67,1-1.67l-1,1.7L154,114a30.15,30.15,0,0,0-1.52,3,71.53,71.53,0,0,0-6.6,21.21c-.17,1.2-.37,2.44-.52,3.71s-.2,2.6-.3,3.95-.1,2.74-.11,4.16-.05,2.88.09,4.36a75.19,75.19,0,0,0,3.35,19.08,73,73,0,0,0,9.74,20.13,84.1,84.1,0,0,0,7.77,9.54c2.9,3.08,6.05,6.08,9.38,9,6.64,6,14,11.75,21.26,18.4A103.36,103.36,0,0,1,207,241.45a75.25,75.25,0,0,1,8.63,13.09,54.58,54.58,0,0,1,5.32,15.37,37.47,37.47,0,0,1-.68,16.79,38.3,38.3,0,0,1-8.66,15.05,73.38,73.38,0,0,1-13.94,11.36c-5.09,3.35-10.46,6.41-15.77,9.71A102.78,102.78,0,0,0,166.58,334a88.06,88.06,0,0,0-22.39,32,84.33,84.33,0,0,0-5.85,40.39,87.46,87.46,0,0,0,14.2,40l-.2-.11H322.76l-.23.14A101,101,0,0,0,327.91,433a116.15,116.15,0,0,0,3.64-13.88,98.48,98.48,0,0,0,1.65-28.26,77.52,77.52,0,0,0-7.29-26.85,73.52,73.52,0,0,0-7.09-11.83,116.64,116.64,0,0,0-8.82-10.5q-9.25-10.07-19.17-19.16c-6.56-6.09-13.41-11.73-19.9-17.67a65.52,65.52,0,0,1-8.91-9.64,29.51,29.51,0,0,1-5.19-11.87,37.68,37.68,0,0,1-.65-6.43c-.05-1.07,0-2.14,0-3.21s.18-2.13.26-3.19a49.68,49.68,0,0,1,2.7-12.39,50.25,50.25,0,0,1,14.13-20.25c3-2.78,6.21-5.3,9.36-7.81,1.58-1.26,3.13-2.53,4.64-3.83s3-2.7,4.56-3.9c3.18-2.4,6.41-4.66,9.5-7.05a115.17,115.17,0,0,0,8.89-7.51,86.48,86.48,0,0,0,7.81-8.35,75.9,75.9,0,0,0,6.39-9.26,67.61,67.61,0,0,0,7.66-20.44,78.74,78.74,0,0,0,1.09-21,106.89,106.89,0,0,0-3.59-20,158.72,158.72,0,0,0-6.32-18.41l.17.11-122.39-.09-33.28,0-8.66,0Z" style="fill:#263238"></path><path d="M316.67,156.53c25.1,4.13-14.47,48.59-36.88,66.13-13,10.15-26.9,21.17-33.06,36.45-7,17.34-1.81,36.82-5.19,54.26a2.42,2.42,0,0,1-4.8-.51c.16-11.45-.14-22.89-2-34.16-2.69-16-8.83-31.79-20-43.5-9.15-9.57-21.14-15.92-30.89-24.86-14.24-13.05-28.87-29.88-30.3-49.14,0,0,27.34-22,42.52-19.25,17.74,3.25,35.2,30.62,62.68,27.49C277.87,167.25,287.56,151.75,316.67,156.53Z" style="fill:#FBC656"></path><path d="M318.9,394.48c-.63-6.28-2.31-13.38-7.88-16.34-3.37-1.8-7.48-1.6-11.18-.63s-7.17,2.66-10.83,3.75a35.47,35.47,0,0,1-22.17-.71c-6.81-2.5-12.65-7-19-10.58s-13.72-6.2-20.76-4.45c-12.14,3-18.46,17.64-30.46,21.17-5.34,1.56-11.07.68-16.49-.54s-10.87-2.81-16.42-2.6c-4.36.16-8.89,1.67-11.94,4.65l0,0-.08.09a11.82,11.82,0,0,0-1.38,1.62c-3.72,5-4.32,11.63-3.17,17.69,1.28,6.79,4.45,13.06,7.85,19.07,4,7.08,8.56,14.12,15.18,18.84,8.18,5.83,18.45,1.81,28.46,2.6,23.33,1.84,48.43,3.09,71.77,1.29,12.33-1,23.88.38,33.66-7.19,6.88-5.32,11.36-13.34,13.52-21.76S319.77,403.13,318.9,394.48Z" style="fill:#FBC656"></path><g style="opacity:0.24"><path d="M274.86,382.46c-1.31,2-1.88,4.72-.61,6.76s3,3.91,3.54,6.26c.87,3.68-1.35,7.28-3,10.69a34.05,34.05,0,0,0-3.31,19.73,26.84,26.84,0,0,0,9.79,17.23c2.37,1.83,5.45,3.25,8.31,2.35,2.69-.84,4.42-3.57,5-6.34s.09-5.62-.26-8.41a130.64,130.64,0,0,1,1-39.08c.38-2.15.74-4.61-.62-6.32a7.32,7.32,0,0,0-3.59-2c-5.2-1.73-10.81.19-16.2-.83"></path></g><path d="M139.83,454.28s-.47-7.82,9.73-12.18H328.81s9.35,4.74,10.5,12Z" style="fill:#263238"></path><path d="M325,111.19l-.29.13-168.55-1.08s-.6-.38-1.49-1.09a6.39,6.39,0,0,1,4-11.42l163.6,1.32C329,99.11,331.12,108.31,325,111.19Z" style="fill:#263238"></path><g style="opacity:0.24"><path d="M298,175.49c.34.65-.93,2-3.34,4.2s-6,5.09-10.46,8.72a137.3,137.3,0,0,1-17,12,68.21,68.21,0,0,1-11.64,5.35,55.12,55.12,0,0,1-6.69,1.85,45.64,45.64,0,0,1-7.23.94,38.6,38.6,0,0,1-14.53-2,52.36,52.36,0,0,1-11.68-6c-3.36-2.22-6.25-4.42-9-6.53s-5.2-4.14-7.42-6.06c-8.85-7.67-13.51-13.31-12.61-14.4s7.2,2.46,17,8.46l8,4.9c2.87,1.74,5.94,3.67,9.08,5.45a50.84,50.84,0,0,0,9.85,4.45,31.63,31.63,0,0,0,10.84,1.28c7.68-.4,15.13-3.1,21.58-6.22s12.29-6.76,17.35-9.6a87.41,87.41,0,0,1,12.52-6.1C295.79,175.07,297.71,174.86,298,175.49Z"></path></g><path d="M236.86,334.26a2.9,2.9,0,1,1-.14.06" style="fill:#FBC656"></path><path d="M176.58,203.38a4.33,4.33,0,0,1-.6-.6L174.35,201c-.69-.79-1.6-1.71-2.53-2.88l-3.18-4c-1.09-1.54-2.32-3.2-3.56-5l-1.83-2.91c-.31-.5-.64-1-.94-1.53l-.88-1.62a67.6,67.6,0,0,1-6.21-14.95,63,63,0,0,1-2.36-16c0-1.25.07-2.46.09-3.65,0-.59,0-1.17.08-1.74s.12-1.13.18-1.68c.13-1.1.21-2.17.36-3.19s.36-2,.53-2.91c.28-1.87.78-3.5,1.13-5,.19-.72.34-1.4.53-2l.55-1.67.77-2.29a4.26,4.26,0,0,1,.3-.79,4.55,4.55,0,0,1-.2.82c-.17.58-.39,1.35-.68,2.32L156,132c-.17.61-.31,1.29-.49,2-.32,1.45-.79,3.09-1,5-.16.92-.32,1.89-.49,2.9s-.21,2.07-.33,3.17c0,.55-.11,1.1-.17,1.67s0,1.15-.06,1.73c0,1.18-.08,2.38-.07,3.62A63.34,63.34,0,0,0,155.72,168a68.82,68.82,0,0,0,6.13,14.86c.29.54.58,1.08.86,1.62s.63,1,.93,1.52l1.8,2.91c1.22,1.84,2.43,3.5,3.49,5l3.12,4c.9,1.19,1.79,2.12,2.45,2.94l1.56,1.85A6.8,6.8,0,0,1,176.58,203.38Z" style="fill:#263238"></path><path d="M167.09,351.94a2,2,0,0,1,.18-.33l.6-.94c.27-.42.6-.92,1-1.52l.63-1c.25-.33.54-.66.83-1l2-2.4c.77-.83,1.65-1.69,2.58-2.63a67.67,67.67,0,0,1,6.86-5.78c5.31-4,12.16-8,19.58-12.69a112,112,0,0,0,11.23-7.91,52.39,52.39,0,0,0,10.07-10.64,50.37,50.37,0,0,0,8.15-26.83,63.47,63.47,0,0,0-3.84-22.8,85.1,85.1,0,0,0-6.62-14.2c-.93-1.61-1.69-2.83-2.21-3.66l-.59-.94c-.13-.21-.19-.33-.19-.33a1.48,1.48,0,0,1,.23.3l.64.92c.55.8,1.34,2,2.29,3.61a81.16,81.16,0,0,1,6.8,14.18,63.41,63.41,0,0,1,4,22.93,54,54,0,0,1-.55,6.74,49.25,49.25,0,0,1-1.47,6.91A46.82,46.82,0,0,1,223,305.4a52.73,52.73,0,0,1-10.18,10.75,113.44,113.44,0,0,1-11.29,7.92c-7.45,4.65-14.31,8.61-19.62,12.58a70.42,70.42,0,0,0-6.88,5.69c-.93.93-1.82,1.77-2.6,2.59l-2,2.35c-.3.36-.59.69-.84,1l-.65.95-1,1.49-.64.91A2.33,2.33,0,0,1,167.09,351.94Z" style="fill:#263238"></path><path d="M157.79,369.61a3.16,3.16,0,0,1-.22.47l-.72,1.27c-.32.54-.7,1.22-1.09,2s-.89,1.7-1.31,2.75c-.22.52-.46,1.06-.7,1.62s-.44,1.18-.68,1.8c-.48,1.24-.86,2.6-1.3,4A54.34,54.34,0,0,0,150,402.8c.17,1.48.29,2.9.55,4.2.11.65.2,1.29.33,1.89s.27,1.18.4,1.73c.22,1.11.55,2.08.79,2.94s.48,1.6.7,2.2l.47,1.38a1.71,1.71,0,0,1,.13.49,1.9,1.9,0,0,1-.23-.45c-.15-.37-.33-.81-.56-1.35a21.57,21.57,0,0,1-.79-2.18c-.27-.86-.62-1.83-.87-2.94-.14-.55-.28-1.13-.43-1.73s-.24-1.25-.37-1.9c-.28-1.32-.42-2.74-.6-4.23a52.34,52.34,0,0,1,1.78-19.4c.45-1.44.85-2.81,1.36-4.05.25-.62.45-1.23.71-1.8l.74-1.63c.44-1,1-1.93,1.39-2.73a20.73,20.73,0,0,1,1.17-2l.8-1.23C157.67,369.74,157.77,369.6,157.79,369.61Z" style="fill:#263238"></path><path d="M281.42,393.65l-.2.14-.62.39-2.43,1.46-1.76,1c-.66.37-1.39.71-2.17,1.1-1.58.76-3.32,1.73-5.38,2.51l-3.2,1.31c-1.11.44-2.32.79-3.54,1.21-2.43.89-5.13,1.53-7.94,2.26a93.09,93.09,0,0,1-37.61,1c-2.86-.58-5.58-1.08-8.06-1.84-1.24-.36-2.46-.64-3.6-1L201.65,402c-2.09-.67-3.89-1.54-5.5-2.22-.8-.35-1.55-.66-2.22-1l-1.82-.95-2.5-1.33-.64-.36-.21-.13s.09,0,.24.09l.66.31,2.54,1.24,1.83.9c.68.32,1.44.61,2.24.95,1.61.64,3.41,1.49,5.51,2.13L205,402.8c1.14.38,2.36.65,3.6,1,2.47.74,5.18,1.21,8,1.78a95.06,95.06,0,0,0,37.42-1c2.8-.72,5.49-1.33,7.92-2.2,1.22-.41,2.42-.74,3.53-1.18l3.2-1.27c2.06-.76,3.81-1.7,5.39-2.43.78-.38,1.52-.71,2.18-1l1.78-1,2.47-1.38.65-.34C281.34,393.67,281.42,393.64,281.42,393.65Z" style="fill:#263238"></path><path d="M291.85,182a1.06,1.06,0,0,1-.21.19l-.66.54c-.61.49-1.46,1.18-2.55,2-2.22,1.76-5.44,4.31-9.51,7.35A137.5,137.5,0,0,1,264.05,202a67,67,0,0,1-9.58,4.41,43.67,43.67,0,0,1-11.06,2.46,42,42,0,0,1-21.24-4.42,72.06,72.06,0,0,1-8.21-4.88c-2.44-1.72-4.67-3.39-6.64-5-4-3.18-7.06-5.87-9.22-7.71l-2.47-2.14-.63-.56-.21-.21s.09,0,.24.16l.67.53,2.53,2.06c2.2,1.8,5.34,4.44,9.32,7.58,2,1.57,4.21,3.22,6.66,4.92a73,73,0,0,0,8.17,4.8,41.85,41.85,0,0,0,21,4.33,43.36,43.36,0,0,0,10.93-2.42,67.07,67.07,0,0,0,9.52-4.35,143.81,143.81,0,0,0,14.89-9.71c4.08-3,7.33-5.5,9.6-7.21l2.61-2,.69-.5A.9.9,0,0,1,291.85,182Z" style="fill:#263238"></path><g style="opacity:0.24"><path d="M201.66,402.05c4.74-3.66,11.4-2.78,17.26-1.54s11.76,3.23,17.69,2.4c4.47-.63,8.57-2.82,13-3.78s9.76-.25,12.21,3.54a95,95,0,0,1-60.13-.62"></path></g></g></svg>